<svg width="24" height="23" viewBox="0 0 24 23" fill="none" xmlns="http://www.w3.org/2000/svg">
<path d="M12.1875 23C18.5388 23 23.6875 17.8513 23.6875 11.5C23.6875 5.14872 18.5388 0 12.1875 0C5.83623 0 0.6875 5.14872 0.6875 11.5C0.6875 17.8513 5.83623 23 12.1875 23Z" fill="url(#paint0_linear)"/>
<path d="M12.1875 14.9499C10.2852 14.9499 8.7373 13.4025 8.7373 11.5C8.7373 9.59768 10.2852 8.05029 12.1875 8.05029C14.0899 8.05029 15.6373 9.59768 15.6373 11.5C15.6373 13.4025 14.0899 14.9499 12.1875 14.9499ZM12.1875 8.97882C10.797 8.97882 9.66583 10.11 9.66583 11.5C9.66583 12.8901 10.797 14.0214 12.1875 14.0214C13.5776 14.0214 14.7088 12.8901 14.7088 11.5C14.7088 10.11 13.5776 8.97882 12.1875 8.97882Z" fill="white"/>
<path d="M16.1322 8.11352C16.3692 8.11352 16.5613 7.92141 16.5613 7.68444C16.5613 7.44747 16.3692 7.25537 16.1322 7.25537C15.8952 7.25537 15.7031 7.44747 15.7031 7.68444C15.7031 7.92141 15.8952 8.11352 16.1322 8.11352Z" fill="white"/>
<path d="M15.157 18.2455H9.21814C7.13629 18.2455 5.44238 16.5517 5.44238 14.4693V8.53086C5.44238 6.44845 7.13629 4.75464 9.21814 4.75464H15.157C17.2394 4.75464 18.9332 6.44845 18.9332 8.53086V14.4693C18.9332 16.5517 17.2394 18.2455 15.157 18.2455ZM9.21814 5.68316C7.6481 5.68316 6.37091 6.96082 6.37091 8.53086V14.4693C6.37091 16.0393 7.6481 17.3169 9.21814 17.3169H15.157C16.7271 17.3169 18.0047 16.0393 18.0047 14.4693V8.53086C18.0047 6.96082 16.7271 5.68316 15.157 5.68316H9.21814V5.68316Z" fill="white"/>
<defs>
<linearGradient id="paint0_linear" x1="12.1875" y1="24.4533" x2="12.1875" y2="-1.90104" gradientUnits="userSpaceOnUse">
<stop offset="0.09694" stop-color="#FFD879"/>
<stop offset="0.15387" stop-color="#FCCB76"/>
<stop offset="0.25828" stop-color="#F5AA6C"/>
<stop offset="0.39756" stop-color="#E9755E"/>
<stop offset="0.44898" stop-color="#E45F58"/>
<stop offset="0.67857" stop-color="#D22A9C"/>
<stop offset="1" stop-color="#6968DF"/>
</linearGradient>
</defs>
</svg>
