<svg width="23" height="23" viewBox="0 0 23 23" fill="none" xmlns="http://www.w3.org/2000/svg">
<path d="M11.5 0C5.14918 0 0 5.14918 0 11.5C0 17.8508 5.14918 23 11.5 23C17.8508 23 23 17.8508 23 11.5C23 5.14918 17.8508 0 11.5 0ZM9.98153 17.2171C8.82449 18.3742 6.9399 18.3742 5.78051 17.2171C4.62347 16.0601 4.62347 14.1755 5.78051 13.0185L8.75643 10.0426C9.91347 8.88551 11.7981 8.88551 12.9574 10.0426C12.988 10.0731 13.0185 10.1059 13.049 10.1388C13.0654 10.1529 13.0842 10.1693 13.1006 10.1857C13.1476 10.2327 13.1851 10.2843 13.218 10.3383C13.2227 10.343 13.225 10.3477 13.2297 10.3523L13.2273 10.3547C13.3705 10.6246 13.3283 10.9649 13.1006 11.1902C12.873 11.4179 12.528 11.4601 12.2581 11.3122C12.2393 11.331 12.0539 11.1456 11.953 11.047C11.3474 10.4415 10.3735 10.4368 9.76796 11.0423L6.78735 14.023C6.18184 14.6285 6.18184 15.6071 6.78735 16.2127C7.39286 16.8182 8.37153 16.8182 8.97704 16.2127L10.7701 14.4196C11.392 14.7247 12.1243 14.7341 12.7533 14.4454L9.98153 17.2171ZM17.2171 9.98153L14.2436 12.9574C13.0865 14.1145 11.2019 14.1145 10.0426 12.9574C10.012 12.9269 9.98153 12.8941 9.95102 12.8612C9.93459 12.8471 9.91582 12.8307 9.90173 12.8143C9.8548 12.7673 9.81725 12.7157 9.78439 12.6617C9.77969 12.657 9.77735 12.6523 9.77265 12.6477L9.775 12.6453C9.63184 12.3754 9.67408 12.0351 9.90173 11.8098C10.1294 11.5821 10.4744 11.5422 10.7443 11.6878C10.7631 11.669 10.9485 11.8544 11.0494 11.953C11.6549 12.5585 12.6289 12.5632 13.2344 11.9577L16.215 8.97704C16.8205 8.37153 16.8205 7.39286 16.215 6.78735C15.6095 6.18184 14.6308 6.18184 14.0253 6.78735L12.2276 8.58041C11.608 8.27765 10.8734 8.26592 10.2444 8.55459L13.0161 5.78286C14.1732 4.62582 16.0578 4.62582 17.2171 5.78286C18.3765 6.9399 18.3765 8.82449 17.2171 9.98153Z" fill="white"/>
</svg>
