<svg width="39" height="39" viewBox="0 0 39 39" fill="none" xmlns="http://www.w3.org/2000/svg">
<path d="M19.5023 0C14.2019 0 13.5414 0.0255938 11.467 0.113344C9.3842 0.215719 7.97532 0.538688 6.7322 1.02131C5.43114 1.51249 4.25285 2.28152 3.27948 3.27478C2.28345 4.24588 1.514 5.42482 1.02601 6.7275C0.543387 7.97062 0.220418 9.3795 0.118043 11.4623C0.0241997 13.5379 0.00469971 14.1972 0.00469971 19.4976C0.00469971 24.7979 0.0302935 25.4585 0.118043 27.5328C0.220418 29.6095 0.543387 31.0245 1.02601 32.2676C1.51719 33.5687 2.28622 34.747 3.27948 35.7203C4.25058 36.7164 5.42952 37.4858 6.7322 37.9738C7.97532 38.4503 9.39029 38.7794 11.467 38.8818C13.5426 38.9756 14.2019 38.9951 19.5023 38.9951C24.8026 38.9951 25.4632 38.9695 27.5375 38.8818C29.6142 38.7794 31.0292 38.4491 32.2723 37.9738C33.5734 37.4826 34.7517 36.7136 35.725 35.7203C36.7224 34.7503 37.492 33.5711 37.9785 32.2676C38.455 31.0245 38.7841 29.6095 38.8865 27.5328C38.9803 25.4572 38.9998 24.7979 38.9998 19.4976C38.9998 14.1972 38.9742 13.5367 38.8865 11.4623C38.7841 9.38559 38.4538 7.96331 37.9785 6.7275C37.4873 5.42644 36.7183 4.24815 35.725 3.27478C34.755 2.27747 33.5758 1.50781 32.2723 1.02131C31.0292 0.538688 29.6142 0.215719 27.5375 0.113344C25.4619 0.0195 24.8026 0 19.5023 0ZM19.5023 3.51C24.7075 3.51 25.3291 3.53559 27.3864 3.62334C29.2839 3.71231 30.3174 4.02919 31.0036 4.29731C31.8519 4.61044 32.6196 5.10882 33.251 5.75616C33.8972 6.38482 34.3937 7.15083 34.7037 7.99744C34.9719 8.68359 35.2887 9.71709 35.3777 11.6147C35.4654 13.6719 35.491 14.2947 35.491 19.4988C35.491 24.7028 35.4654 25.3256 35.3704 27.3829C35.268 29.2805 34.9511 30.314 34.6842 31.0001C34.3149 31.9154 33.903 32.5553 33.2229 33.2475C32.5895 33.8908 31.8222 34.3868 30.9756 34.7003C30.2979 34.9684 29.2498 35.2852 27.3449 35.3742C25.2767 35.462 24.6673 35.4876 19.4486 35.4876C14.23 35.4876 13.6218 35.462 11.5511 35.3669C9.65354 35.2645 8.60664 34.9477 7.92048 34.6807C6.99423 34.3115 6.35926 33.8995 5.6792 33.2195C4.99304 32.5333 4.55673 31.8801 4.22036 30.9721C3.94736 30.2945 3.63536 29.2463 3.5342 27.3414C3.46473 25.2976 3.43182 24.6638 3.43182 19.4695C3.43182 14.2777 3.46473 13.6427 3.5342 11.5733C3.63536 9.66834 3.94736 8.62266 4.22036 7.94259C4.55673 7.01513 4.99426 6.38137 5.6792 5.69522C6.35804 5.01637 6.99423 4.57762 7.92048 4.23394C8.60664 3.96703 9.62795 3.65016 11.5329 3.55509C13.6011 3.48075 14.2104 3.45394 19.4218 3.45394L19.5023 3.51ZM19.5023 9.49041C18.1876 9.48993 16.8858 9.7485 15.6712 10.2514C14.4566 10.7542 13.3529 11.4915 12.4233 12.4211C11.4938 13.3506 10.7565 14.4543 10.2536 15.6689C9.75077 16.8836 9.49219 18.1854 9.49267 19.5C9.49219 20.8146 9.75077 22.1164 10.2536 23.3311C10.7565 24.5457 11.4938 25.6494 12.4233 26.5789C13.3529 27.5085 14.4566 28.2458 15.6712 28.7486C16.8858 29.2515 18.1876 29.5101 19.5023 29.5096C20.8169 29.5101 22.1187 29.2515 23.3333 28.7486C24.548 28.2458 25.6516 27.5085 26.5812 26.5789C27.5108 25.6494 28.248 24.5457 28.7509 23.3311C29.2538 22.1164 29.5123 20.8146 29.5119 19.5C29.5123 18.1854 29.2538 16.8836 28.7509 15.6689C28.248 14.4543 27.5108 13.3506 26.5812 12.4211C25.6516 11.4915 24.548 10.7542 23.3333 10.2514C22.1187 9.7485 20.8169 9.48993 19.5023 9.49041V9.49041ZM19.5023 25.9996C15.9094 25.9996 13.0027 23.0929 13.0027 19.5C13.0027 15.9071 15.9094 13.0004 19.5023 13.0004C23.0951 13.0004 26.0019 15.9071 26.0019 19.5C26.0019 23.0929 23.0951 25.9996 19.5023 25.9996ZM32.2553 9.09066C32.2546 9.71181 32.0074 10.3073 31.568 10.7463C31.1285 11.1853 30.5328 11.4319 29.9116 11.4319C29.6045 11.4319 29.3003 11.3714 29.0166 11.2538C28.7328 11.1363 28.475 10.964 28.2578 10.7469C28.0407 10.5297 27.8684 10.2719 27.7509 9.98811C27.6333 9.70435 27.5728 9.40023 27.5728 9.09309C27.5728 8.78596 27.6333 8.48184 27.7509 8.19808C27.8684 7.91433 28.0407 7.6565 28.2578 7.43933C28.475 7.22215 28.7328 7.04988 29.0166 6.93234C29.3003 6.81481 29.6045 6.75431 29.9116 6.75431C31.1998 6.75431 32.2553 7.80244 32.2553 9.09066V9.09066Z" fill="white"/>
</svg>
