<svg width="188" height="160" viewBox="0 0 188 160" fill="none" xmlns="http://www.w3.org/2000/svg">
<path fill-rule="evenodd" clip-rule="evenodd" d="M48.1123 140.446C49.1651 140.604 50.3759 140.735 51.7447 140.841L51.2709 146.217C49.3231 146.797 47.5858 147.087 46.0592 147.087C44.0587 147.087 42.5847 146.612 41.6371 145.664C40.6895 144.662 40.2157 143.16 40.2157 141.157V94.9057L48.1123 93.7197V140.446ZM31.5092 145.426C29.614 146.164 27.6135 146.691 25.5078 147.008C23.402 147.324 20.9278 147.482 18.085 147.482C13.0839 147.482 9.31987 146.744 6.79298 145.268C4.26609 143.74 2.50253 141.183 1.5023 137.599C0.502068 133.962 0.00195312 128.639 0.00195312 121.629C0.00195312 114.566 0.502068 109.216 1.5023 105.579C2.55517 101.942 4.3977 99.3859 7.02988 97.91C9.7147 96.4342 13.663 95.6963 18.8747 95.6963C20.6646 95.6963 22.6914 95.8544 24.955 96.1707C27.2714 96.4869 29.1139 96.8822 30.4826 97.3566L29.4561 103.84C27.6135 103.418 25.4815 103.075 23.0599 102.812C20.6383 102.548 18.6641 102.417 17.1375 102.417C13.9262 102.417 11.6625 102.812 10.3464 103.603C9.08298 104.393 8.45125 106.001 8.45125 108.425V139.734C11.1361 140.525 14.2684 140.92 17.8481 140.92C21.9543 140.92 26.2448 140.261 30.7195 138.943L31.5092 145.426ZM89.7653 108.742C87.2384 106.791 83.0796 105.816 77.2887 105.816C74.1828 105.816 71.1031 106.027 68.0498 106.449C65.0491 106.87 62.3116 107.503 59.8374 108.346L61.3377 116.569C66.4442 115.251 71.2611 114.592 75.7884 114.592C76.8217 114.592 77.7537 114.623 78.5843 114.686C75.506 112.278 72.843 109.39 70.7168 106.137C72.8946 105.925 75.0857 105.818 77.29 105.818C83.0808 105.818 87.2397 106.793 89.7666 108.744C90.6127 109.379 91.3171 110.156 91.8799 111.075C91.3169 110.155 90.612 109.377 89.7653 108.742ZM93.5556 121.643C89.3086 120.748 85.3386 119.13 81.7911 116.926V115.227C81.7906 115.227 81.7902 115.226 81.7898 115.226V121.866H80.0525C73.9459 121.866 69.3659 122.235 66.3126 122.973C63.2592 123.658 61.1272 124.897 59.9164 126.689C58.7056 128.481 58.1002 131.143 58.1002 134.674C58.1002 139.101 59.1004 142.317 61.1008 144.32C63.1539 146.27 66.4705 147.245 71.0505 147.245C76.3148 147.245 80.8948 145.611 84.7905 142.343L87.8701 146.296H93.5556V121.643ZM80.5263 138.153C79.684 138.68 78.1311 138.943 75.8674 138.943H68.9184V132.302C68.9184 130.774 69.3132 129.746 70.1029 129.219C70.9452 128.639 72.5245 128.349 74.8408 128.349H81.7898V135.148C81.7898 136.624 81.3686 137.626 80.5263 138.153ZM125.512 105.816C129.46 105.816 132.566 106.475 134.83 107.793C137.094 109.058 138.699 111.192 139.647 114.197C140.647 117.149 141.147 121.26 141.147 126.531C141.147 131.801 140.647 135.965 139.647 139.022C138.647 142.027 137.015 144.188 134.751 145.506C132.54 146.823 129.46 147.482 125.512 147.482C121.406 147.482 118.247 146.929 116.036 145.822V158.788L104.27 159.816V106.765H109.956L109.957 106.767H104.272V122.316C108.407 121.965 112.372 120.9 116.036 119.246V138.39H125.196C126.512 138.39 127.381 138.258 127.802 137.995C128.276 137.678 128.513 137.099 128.513 136.255V114.908H123.302C126.397 112.547 129.117 109.712 131.338 106.521L131.281 106.504C131.307 106.482 131.333 106.461 131.358 106.439C129.675 106.025 127.726 105.818 125.513 105.818C122.197 105.818 119.486 106.187 117.38 106.925C115.274 107.61 113.589 108.77 112.326 110.404L112.325 110.402C113.588 108.768 115.273 107.608 117.379 106.923C119.484 106.185 122.195 105.816 125.512 105.816ZM180.79 107.793C178.527 106.475 175.421 105.816 171.472 105.816C168.156 105.816 165.445 106.185 163.339 106.923C161.233 107.608 159.549 108.768 158.285 110.402L155.916 106.765H150.231V159.816L161.996 158.788V145.822C164.207 146.929 167.366 147.482 171.472 147.482C175.421 147.482 178.5 146.823 180.711 145.506C182.975 144.188 184.607 142.027 185.607 139.022C186.607 135.965 187.107 131.801 187.107 126.531C187.107 121.26 186.607 117.149 185.607 114.197C184.66 111.192 183.054 109.058 180.79 107.793ZM165.392 114.908H174.473V136.255C174.473 137.099 174.236 137.678 173.762 137.995C173.341 138.258 172.473 138.39 171.156 138.39H161.996V116.806C161.996 116.068 162.233 115.567 162.707 115.304C163.181 115.04 164.076 114.908 165.392 114.908Z" fill="white"/>
<path d="M30.8189 65.8974V90.5547H29.1435L28.3422 89.0978C27.8566 89.8505 27.1524 90.3726 26.2298 90.664C25.3314 90.9553 24.0809 91.101 22.4784 91.101C20.5359 91.101 19.0791 90.8461 18.1078 90.3362C17.1609 89.8263 16.4931 88.9036 16.1046 87.5681C15.7404 86.2327 15.5583 84.1931 15.5583 81.4494C15.5583 78.8756 15.7404 76.921 16.1046 75.5855C16.4689 74.2501 17.1002 73.3153 17.9986 72.7811C18.8969 72.2469 20.2203 71.9798 21.9685 71.9798C23.2068 71.9798 24.2387 72.0527 25.0643 72.1983C25.9141 72.3197 26.6183 72.5383 27.1767 72.8539V66.3345L30.8189 65.8974ZM27.1767 74.9664H21.0579C20.4024 74.9664 19.9532 75.0271 19.7104 75.1485C19.4918 75.2699 19.3826 75.5127 19.3826 75.8769V88.1145H25.5013C26.1569 88.1145 26.594 88.0538 26.8125 87.9324C27.0553 87.8109 27.1767 87.5681 27.1767 87.2039V74.9664Z" fill="white"/>
<path fill-rule="evenodd" clip-rule="evenodd" d="M72.2826 90.1338L73.15 91.2917C78.5485 100.752 89.2252 107.096 101.267 107.096C112.149 107.096 121.725 101.829 127.454 93.83L128.062 92.981L133.652 94.722L132.523 96.3444C125.621 106.26 114.072 112.886 101.267 112.886C87.1339 112.886 74.5492 105.415 68.1291 94.1639L67.2617 93.0059L72.2826 90.1338Z" fill="white"/>
<path fill-rule="evenodd" clip-rule="evenodd" d="M55.3754 51.9691C61.6353 47.5743 70.2684 49.0925 74.6579 55.3602L81.4582 65.0703C79.556 68.065 77.026 67.4739 75.2331 66.2659L69.9232 58.6841C67.3673 55.0346 62.3404 54.1505 58.6953 56.7096C55.0502 59.2687 54.1672 64.3017 56.7232 67.9513L72.6081 90.6332C72.6897 90.7598 72.7733 90.8836 72.8587 91.0044C75.1508 94.2443 75.3681 95.0922 75.8267 95.7788C76.3496 96.5616 77.1862 97.1349 81.7687 100.805C76.8176 101.457 71.6825 99.3959 68.617 95.0188L51.9885 71.2753C47.5991 65.0077 49.1154 56.364 55.3754 51.9691Z" fill="white"/>
<path fill-rule="evenodd" clip-rule="evenodd" d="M103.315 28.2927C106.289 24.3308 111.908 23.533 115.865 26.5108C117.749 27.9287 118.916 29.9466 119.302 32.0997L120.059 31.1098C123.06 27.1849 128.66 26.4154 132.607 29.3855C136.077 31.9964 137.126 36.6355 135.346 40.4177C137.586 40.1261 139.938 40.6768 141.886 42.1432C145.843 45.121 146.64 50.7468 143.666 54.7087L142.455 56.3225C144.593 56.0974 146.821 56.6486 148.682 58.0486C152.582 60.9833 153.367 66.5277 150.436 70.4322L132.851 93.8568C131.709 95.3791 130.187 96.472 128.506 97.0875L128.953 95.9238L129.605 93.1276C129.945 92.8292 130.259 92.492 130.54 92.1174L148.125 68.6929C150.096 66.0664 149.568 62.3369 146.945 60.3628C144.257 58.3402 140.43 58.9513 138.504 61.7103L136.572 64.4791C136.114 65.1342 135.213 65.2941 134.559 64.8361C133.904 64.3783 133.744 63.4759 134.202 62.8206L135.687 60.6937C135.733 60.5197 135.813 60.3517 135.928 60.1989L141.355 52.9694C143.37 50.2855 142.83 46.4744 140.149 44.4572C137.469 42.44 133.662 42.9804 131.648 45.6644L128.124 50.3586C127.644 50.9977 126.738 51.1264 126.099 50.6461C125.461 50.1658 125.333 49.2583 125.812 48.6194L129.336 43.9251C129.615 43.5536 129.917 43.21 130.239 42.8946L130.153 42.8296L132.082 40.2589C134.108 37.5602 133.566 33.728 130.87 31.6997C128.192 29.684 124.391 30.2063 122.354 32.8698L118.017 38.5417C117.9 38.7229 117.776 38.9012 117.644 39.0763L114.39 43.4108C113.911 44.0499 113.004 44.1786 112.366 43.6983C111.728 43.218 111.599 42.3106 112.079 41.6716L114.896 37.9198L114.867 37.898L115.642 36.885C117.282 34.2399 116.661 30.7313 114.127 28.8249C111.447 26.8077 107.641 27.3481 105.626 30.032L79.1598 65.2875C78.1129 65.2602 77.0697 64.9608 76.166 64.4575L103.315 28.2927Z" fill="white"/>
<path d="M115.865 26.5108L116.734 25.355L116.734 25.355L115.865 26.5108ZM103.315 28.2927L102.158 27.4243L102.158 27.4243L103.315 28.2927ZM119.302 32.0997L117.878 32.3545C117.979 32.9189 118.404 33.3704 118.961 33.5055C119.518 33.6406 120.102 33.4339 120.451 32.9785L119.302 32.0997ZM120.059 31.1098L121.208 31.9886L121.208 31.9886L120.059 31.1098ZM132.607 29.3855L131.737 30.5413L131.737 30.5413L132.607 29.3855ZM135.346 40.4177L134.037 39.8018C133.812 40.2801 133.866 40.8431 134.177 41.2702C134.489 41.6973 135.009 41.9204 135.533 41.8522L135.346 40.4177ZM141.886 42.1432L141.017 43.299V43.299L141.886 42.1432ZM143.666 54.7087L142.509 53.8402L142.509 53.8403L143.666 54.7087ZM142.455 56.3225L141.298 55.4541C140.952 55.9143 140.913 56.5355 141.196 57.036C141.48 57.5366 142.034 57.8213 142.606 57.7611L142.455 56.3225ZM148.682 58.0486L149.552 56.8928L149.552 56.8928L148.682 58.0486ZM150.436 70.4322L149.279 69.5638V69.5638L150.436 70.4322ZM132.851 93.8568L134.008 94.7252L134.008 94.7252L132.851 93.8568ZM128.506 97.0875L127.156 96.5688C126.952 97.0984 127.077 97.698 127.475 98.1023C127.873 98.5066 128.471 98.641 129.003 98.4459L128.506 97.0875ZM128.953 95.9238L130.303 96.4426C130.327 96.3805 130.347 96.3169 130.362 96.2522L128.953 95.9238ZM129.605 93.1276L128.651 92.0403C128.424 92.2396 128.265 92.505 128.196 92.7993L129.605 93.1276ZM130.54 92.1174L131.697 92.9859L131.697 92.9859L130.54 92.1174ZM148.125 68.6929L146.968 67.8244L146.968 67.8244L148.125 68.6929ZM146.945 60.3628L146.075 61.5186L146.075 61.5186L146.945 60.3628ZM138.504 61.7103L137.318 60.8823L137.318 60.8823L138.504 61.7103ZM136.572 64.4791L137.758 65.3071L137.758 65.3071L136.572 64.4791ZM134.559 64.8361L135.388 63.651L135.388 63.6509L134.559 64.8361ZM134.202 62.8206L133.016 61.9926L133.016 61.9927L134.202 62.8206ZM135.687 60.6937L136.873 61.5217C136.969 61.3837 137.041 61.2299 137.084 61.0673L135.687 60.6937ZM135.928 60.1989L134.771 59.3304L134.771 59.3306L135.928 60.1989ZM141.355 52.9694L140.198 52.1009L140.198 52.1009L141.355 52.9694ZM140.149 44.4572L139.279 45.6131L140.149 44.4572ZM131.648 45.6644L132.804 46.5328L132.804 46.5328L131.648 45.6644ZM128.124 50.3586L126.967 49.4902L126.967 49.4902L128.124 50.3586ZM126.099 50.6461L126.969 49.4903L126.969 49.4903L126.099 50.6461ZM125.812 48.6194L126.969 49.4879L126.969 49.4879L125.812 48.6194ZM129.336 43.9251L128.179 43.0566L128.179 43.0566L129.336 43.9251ZM130.239 42.8946L131.251 43.9278C131.553 43.6328 131.71 43.2212 131.683 42.8006C131.655 42.38 131.446 41.9923 131.109 41.7388L130.239 42.8946ZM130.153 42.8296L128.996 41.9612C128.517 42.5995 128.645 43.5054 129.283 43.9854L130.153 42.8296ZM132.082 40.2589L130.926 39.3904L130.926 39.3904L132.082 40.2589ZM130.87 31.6997L130 32.8555L130 32.8555L130.87 31.6997ZM122.354 32.8698L121.205 31.991L121.205 31.991L122.354 32.8698ZM118.017 38.5417L116.868 37.663C116.844 37.6938 116.822 37.7256 116.801 37.7583L118.017 38.5417ZM117.644 39.0763L118.801 39.9448L118.801 39.9446L117.644 39.0763ZM114.39 43.4108L113.234 42.5424L113.234 42.5424L114.39 43.4108ZM112.366 43.6983L111.496 44.8541L111.496 44.8542L112.366 43.6983ZM112.079 41.6716L113.236 42.5402L113.236 42.5401L112.079 41.6716ZM114.896 37.9198L116.052 38.7882C116.528 38.1543 116.405 37.2555 115.777 36.7726L114.896 37.9198ZM114.867 37.898L113.718 37.0192C113.234 37.6529 113.353 38.5592 113.986 39.0452L114.867 37.898ZM115.642 36.885L116.791 37.7638C116.82 37.7262 116.847 37.6873 116.871 37.6472L115.642 36.885ZM114.127 28.8249L114.997 27.6691L114.997 27.6691L114.127 28.8249ZM105.626 30.032L106.783 30.9005L106.783 30.9004L105.626 30.032ZM79.1598 65.2875L79.122 66.7336C79.5903 66.7458 80.0355 66.5306 80.3167 66.156L79.1598 65.2875ZM76.166 64.4575L75.0092 63.5891C74.7583 63.9232 74.6642 64.3494 74.7511 64.7581C74.8379 65.1668 75.0971 65.5179 75.4621 65.7212L76.166 64.4575ZM116.734 25.355C112.138 21.8961 105.612 22.8233 102.158 27.4243L104.471 29.1611C106.966 25.8383 111.677 25.1699 114.995 27.6667L116.734 25.355ZM120.726 31.8449C120.278 29.3468 118.922 27.0012 116.734 25.355L114.995 27.6667C116.576 28.8562 117.554 30.5465 117.878 32.3545L120.726 31.8449ZM118.91 30.231L118.153 31.2209L120.451 32.9785L121.208 31.9886L118.91 30.231ZM133.477 28.2297C128.895 24.7816 122.394 25.6754 118.91 30.2311L121.208 31.9886C123.727 28.6944 128.426 28.0493 131.737 30.5413L133.477 28.2297ZM136.655 41.0336C138.72 36.6444 137.506 31.2612 133.477 28.2296L131.737 30.5413C134.648 32.7316 135.531 36.6266 134.037 39.8018L136.655 41.0336ZM142.756 40.9874C140.493 39.2846 137.76 38.6448 135.159 38.9833L135.533 41.8522C137.413 41.6074 139.382 42.0691 141.017 43.299L142.756 40.9874ZM144.823 55.5771C148.276 50.9772 147.351 44.4454 142.756 40.9874L141.017 43.299C144.335 45.7966 145.004 50.5163 142.509 53.8402L144.823 55.5771ZM143.612 57.1909L144.823 55.5771L142.509 53.8403L141.298 55.4541L143.612 57.1909ZM149.552 56.8928C147.387 55.264 144.791 54.6221 142.303 54.8839L142.606 57.7611C144.396 57.5728 146.256 58.0331 147.812 59.2045L149.552 56.8928ZM151.593 71.3006C155.003 66.7581 154.09 60.3078 149.552 56.8928L147.812 59.2045C151.074 61.6589 151.731 66.2972 149.279 69.5638L151.593 71.3006ZM134.008 94.7252L151.593 71.3006L149.279 69.5638L131.695 92.9883L134.008 94.7252ZM129.003 98.4459C130.94 97.7368 132.693 96.4773 134.008 94.7252L131.695 92.9883C130.724 94.281 129.434 95.2071 128.009 95.7292L129.003 98.4459ZM129.856 97.6063L130.303 96.4426L127.603 95.4051L127.156 96.5688L129.856 97.6063ZM130.362 96.2522L131.014 93.456L128.196 92.7993L127.544 95.5955L130.362 96.2522ZM129.383 91.249C129.162 91.5432 128.917 91.8071 128.651 92.0403L130.559 94.215C130.973 93.8512 131.356 93.4408 131.697 92.9859L129.383 91.249ZM146.968 67.8244L129.383 91.249L131.697 92.9859L149.281 69.5613L146.968 67.8244ZM146.075 61.5186C148.06 63.0125 148.461 65.836 146.968 67.8244L149.281 69.5613C151.732 66.2969 151.076 61.6613 147.815 59.207L146.075 61.5186ZM139.691 62.5383C141.148 60.4505 144.042 59.989 146.075 61.5186L147.815 59.207C144.472 56.6915 139.713 57.4521 137.318 60.8823L139.691 62.5383ZM137.758 65.3071L139.691 62.5383L137.318 60.8823L135.386 63.6511L137.758 65.3071ZM133.729 66.0213C135.039 66.938 136.843 66.6175 137.758 65.3071L135.386 63.651C135.385 63.6526 135.384 63.6528 135.385 63.6523C135.385 63.6519 135.386 63.6514 135.386 63.651C135.388 63.6503 135.388 63.6505 135.386 63.6507C135.385 63.6509 135.385 63.6507 135.387 63.651C135.388 63.6511 135.388 63.6514 135.389 63.6517C135.39 63.6521 135.39 63.6521 135.388 63.651L133.729 66.0213ZM133.016 61.9927C132.102 63.3019 132.42 65.1055 133.729 66.0214L135.388 63.6509C135.386 63.6498 135.386 63.6495 135.387 63.6501C135.387 63.6505 135.388 63.6511 135.388 63.6516C135.388 63.6525 135.388 63.6521 135.388 63.6503C135.387 63.6485 135.388 63.6478 135.388 63.6486C135.387 63.6491 135.387 63.6497 135.387 63.6501C135.387 63.6507 135.387 63.6502 135.388 63.6486L133.016 61.9927ZM134.501 59.8657L133.016 61.9926L135.388 63.6486L136.873 61.5217L134.501 59.8657ZM134.771 59.3306C134.543 59.6338 134.383 59.9704 134.289 60.3201L137.084 61.0673L137.085 61.0671L134.771 59.3306ZM140.198 52.1009L134.771 59.3304L137.085 61.0673L142.512 53.8378L140.198 52.1009ZM139.279 45.6131C141.322 47.15 141.734 50.0551 140.198 52.1009L142.512 53.8378C145.005 50.516 144.338 45.7989 141.019 43.3014L139.279 45.6131ZM132.804 46.5328C134.339 44.4879 137.238 44.0769 139.279 45.6131L141.019 43.3014C137.699 40.8032 132.985 41.4729 130.491 44.7959L132.804 46.5328ZM129.28 51.2271L132.804 46.5328L130.491 44.7959L126.967 49.4902L129.28 51.2271ZM125.23 51.8019C126.507 52.7634 128.321 52.505 129.28 51.227L126.967 49.4902C126.966 49.4918 126.965 49.492 126.966 49.4915C126.966 49.491 126.967 49.4906 126.968 49.4902C126.969 49.4895 126.969 49.4898 126.967 49.49C126.966 49.4901 126.966 49.4899 126.968 49.4902C126.969 49.4904 126.969 49.4907 126.97 49.4911C126.971 49.4914 126.971 49.4914 126.969 49.4903L125.23 51.8019ZM124.655 47.7509C123.697 49.0279 123.953 50.8414 125.23 51.8019L126.969 49.4903C126.968 49.4892 126.968 49.4889 126.968 49.4894C126.968 49.4899 126.969 49.4904 126.969 49.4909C126.97 49.4918 126.969 49.4912 126.969 49.4894C126.969 49.4876 126.969 49.4869 126.969 49.4877C126.969 49.4882 126.968 49.4888 126.968 49.4893C126.968 49.4899 126.968 49.4895 126.969 49.4879L124.655 47.7509ZM128.179 43.0566L124.655 47.751L126.969 49.4879L130.493 44.7935L128.179 43.0566ZM129.227 41.8614C128.853 42.2278 128.502 42.6265 128.179 43.0566L130.493 44.7935C130.728 44.4807 130.982 44.1921 131.251 43.9278L129.227 41.8614ZM129.283 43.9854L129.369 44.0504L131.109 41.7388L131.022 41.6738L129.283 43.9854ZM130.926 39.3904L128.996 41.9612L131.31 43.698L133.239 41.1273L130.926 39.3904ZM130 32.8555C132.058 34.4036 132.473 37.3298 130.926 39.3904L133.239 41.1273C135.744 37.7906 135.074 33.0525 131.74 30.5438L130 32.8555ZM123.503 33.7485C125.058 31.7158 127.957 31.3179 130 32.8555L131.74 30.5439C128.426 28.0502 123.725 28.6968 121.205 31.991L123.503 33.7485ZM119.166 39.4205L123.503 33.7485L121.205 31.991L116.868 37.663L119.166 39.4205ZM118.801 39.9446C118.953 39.7422 119.097 39.5357 119.233 39.3252L116.801 37.7583C116.703 37.9102 116.598 38.0602 116.487 38.208L118.801 39.9446ZM115.547 44.2793L118.801 39.9448L116.487 38.2079L113.234 42.5424L115.547 44.2793ZM111.496 44.8542C112.774 45.8156 114.588 45.5572 115.547 44.2793L113.234 42.5424C113.232 42.544 113.232 42.5442 113.233 42.5437C113.233 42.5432 113.234 42.5428 113.234 42.5424C113.235 42.5417 113.235 42.542 113.234 42.5422C113.233 42.5423 113.233 42.5421 113.235 42.5424C113.235 42.5426 113.236 42.5429 113.237 42.5433C113.238 42.5436 113.237 42.5436 113.236 42.5425L111.496 44.8542ZM110.922 40.8031C109.964 42.0801 110.22 43.8936 111.496 44.8541L113.236 42.5425C113.235 42.5414 113.234 42.5411 113.235 42.5416C113.235 42.5421 113.236 42.5427 113.236 42.5432C113.236 42.544 113.236 42.5434 113.236 42.5416C113.235 42.5398 113.236 42.5391 113.236 42.5399C113.235 42.5404 113.235 42.541 113.235 42.5415C113.235 42.5421 113.235 42.5417 113.236 42.5402L110.922 40.8031ZM113.739 37.0514L110.922 40.8032L113.236 42.5401L116.052 38.7882L113.739 37.0514ZM113.986 39.0452L114.014 39.067L115.777 36.7726L115.748 36.7509L113.986 39.0452ZM114.493 36.0062L113.718 37.0192L116.016 38.7768L116.791 37.7638L114.493 36.0062ZM113.258 29.9807C115.187 31.4327 115.662 34.1076 114.413 36.1227L116.871 37.6472C118.902 34.3722 118.134 30.0298 114.997 27.6691L113.258 29.9807ZM106.783 30.9004C108.318 28.8556 111.216 28.4445 113.258 29.9807L114.997 27.6691C111.677 25.1708 106.963 25.8405 104.469 29.1636L106.783 30.9004ZM80.3167 66.156L106.783 30.9005L104.469 29.1636L78.003 64.4191L80.3167 66.156ZM79.1976 63.8415C78.3952 63.8205 77.5794 63.5889 76.8699 63.1938L75.4621 65.7212C76.56 66.3327 77.8306 66.6999 79.122 66.7336L79.1976 63.8415ZM102.158 27.4243L75.0092 63.5891L77.3229 65.3259L104.471 29.1611L102.158 27.4243Z" fill="white"/>
<ellipse cx="91.7252" cy="91.5839" rx="2.60218" ry="2.60537" fill="white"/>
<path fill-rule="evenodd" clip-rule="evenodd" d="M131.927 69.8811C133.199 70.8469 133.449 72.6627 132.484 73.9368L118.964 91.7938C113.071 100.947 103.599 99.9665 99.5881 98.3131C98.1115 97.7044 97.4074 96.0124 98.0154 94.5341C98.6234 93.0557 100.313 92.3508 101.79 92.9595C104.318 94.0017 110.325 94.6027 114.152 88.5819L114.215 88.4818L127.876 70.4392C128.841 69.1651 130.654 68.9152 131.927 69.8811Z" fill="white"/>
<path fill-rule="evenodd" clip-rule="evenodd" d="M78.3825 32.202C73.993 25.9343 65.36 24.4161 59.1 28.8109C52.84 33.2058 51.3237 41.8494 55.7131 48.1171L60.3276 54.7061L64.6488 50.7917L60.4478 44.7931C57.8919 41.1435 58.7748 36.1105 62.4199 33.5514C66.065 30.9923 71.0919 31.8764 73.6479 35.5259L78.9577 43.1077C80.7506 44.3157 83.2806 44.9068 85.1829 41.9121L78.3825 32.202Z" fill="white"/>
<path fill-rule="evenodd" clip-rule="evenodd" d="M119.586 3.35459C115.629 0.376767 110.01 1.17455 107.036 5.13645L79.8887 41.2993C80.792 41.8028 81.835 42.1025 82.8817 42.1304L109.347 6.87577C111.362 4.19181 115.168 3.65143 117.849 5.66864C120.382 7.57503 121.003 11.0836 119.363 13.7287L118.588 14.7418L118.617 14.7635L115.8 18.5154C115.321 19.1543 115.449 20.0618 116.087 20.5421C116.726 21.0224 117.632 20.8936 118.112 20.2546L121.365 15.9201C121.497 15.7449 121.621 15.5667 121.738 15.3855L126.076 9.71352C128.113 7.05005 131.913 6.52777 134.591 8.54342C137.287 10.5718 137.829 14.4039 135.804 17.1026L133.874 19.6733L133.96 19.7384C133.638 20.0537 133.336 20.3973 133.057 20.7688L129.533 25.4632C129.054 26.1021 129.182 27.0096 129.821 27.4899C130.459 27.9702 131.365 27.8414 131.845 27.2024L135.369 22.5081C137.383 19.8242 141.19 19.2838 143.87 21.301C146.551 23.3182 147.091 27.1293 145.076 29.8131L139.649 37.0426C139.534 37.1954 139.454 37.3635 139.408 37.5375L137.923 39.6644C137.466 40.3197 137.625 41.222 138.28 41.6799C138.934 42.1379 139.836 41.978 140.293 41.3228L142.226 38.5541C144.152 35.795 147.978 35.184 150.666 37.2066C153.289 39.1807 153.818 42.9102 151.846 45.5366L143.886 56.1393L145.864 58.3228L154.157 47.2759C157.088 43.3714 156.303 37.8271 152.403 34.8924C150.543 33.4923 148.315 32.9412 146.176 33.1662L147.387 31.5524C150.361 27.5905 149.565 21.9648 145.608 18.9869C143.659 17.5206 141.307 16.9699 139.067 17.2615C140.847 13.4792 139.798 8.84011 136.328 6.22923C132.382 3.25918 126.782 4.02869 123.78 7.95357L123.023 8.94344C122.637 6.79039 121.47 4.77248 119.586 3.35459Z" fill="white"/>
<path d="M107.036 5.13645L105.879 4.26802L105.879 4.26802L107.036 5.13645ZM119.586 3.35459L120.456 2.19878L120.456 2.19877L119.586 3.35459ZM79.8887 41.2993L78.7318 40.4308C78.4811 40.7649 78.3869 41.191 78.4737 41.5996C78.5604 42.0082 78.8195 42.3594 79.1843 42.5627L79.8887 41.2993ZM82.8817 42.1304L82.8433 43.5764C83.3117 43.5888 83.7572 43.3736 84.0386 42.9988L82.8817 42.1304ZM109.347 6.87577L110.504 7.7442L110.504 7.74419L109.347 6.87577ZM117.849 5.66864L118.718 4.51281L118.718 4.51281L117.849 5.66864ZM119.363 13.7287L120.512 14.6075C120.541 14.57 120.568 14.5311 120.593 14.491L119.363 13.7287ZM118.588 14.7418L117.439 13.863C116.955 14.4967 117.075 15.4031 117.707 15.889L118.588 14.7418ZM118.617 14.7635L119.774 15.632C120.25 14.998 120.127 14.0992 119.498 13.6163L118.617 14.7635ZM115.8 18.5154L116.957 19.3839L116.957 19.3838L115.8 18.5154ZM116.087 20.5421L115.218 21.6979L115.218 21.6979L116.087 20.5421ZM118.112 20.2546L116.955 19.3861L116.955 19.3861L118.112 20.2546ZM121.365 15.9201L122.522 16.7885L122.522 16.7884L121.365 15.9201ZM121.738 15.3855L120.589 14.5067C120.565 14.5376 120.543 14.5694 120.522 14.602L121.738 15.3855ZM126.076 9.71352L124.926 8.83475L124.926 8.83477L126.076 9.71352ZM134.591 8.54342L133.721 9.69923L133.721 9.69925L134.591 8.54342ZM135.804 17.1026L134.647 16.2341L134.647 16.2342L135.804 17.1026ZM133.874 19.6733L132.717 18.8049C132.238 19.4433 132.366 20.3492 133.004 20.8292L133.874 19.6733ZM133.96 19.7384L134.973 20.7715C135.274 20.4765 135.431 20.0649 135.404 19.6443C135.376 19.2237 135.167 18.836 134.83 18.5825L133.96 19.7384ZM133.057 20.7688L131.901 19.9004L131.901 19.9004L133.057 20.7688ZM129.533 25.4632L130.69 26.3317L130.69 26.3316L129.533 25.4632ZM131.845 27.2024L130.688 26.3339L130.688 26.3339L131.845 27.2024ZM135.369 22.5081L136.526 23.3766L136.526 23.3765L135.369 22.5081ZM143.87 21.301L143.001 22.4568L143.87 21.301ZM145.076 29.8131L143.919 28.9447L143.919 28.9447L145.076 29.8131ZM139.649 37.0426L138.492 36.1742L138.492 36.1743L139.649 37.0426ZM139.408 37.5375L140.594 38.3655C140.69 38.2275 140.762 38.0737 140.805 37.9111L139.408 37.5375ZM137.923 39.6644L136.737 38.8363L136.737 38.8364L137.923 39.6644ZM138.28 41.6799L139.109 40.4947L139.109 40.4946L138.28 41.6799ZM140.293 41.3228L141.479 42.1509L141.479 42.1508L140.293 41.3228ZM142.226 38.5541L141.039 37.7261L141.039 37.7261L142.226 38.5541ZM150.666 37.2066L149.796 38.3624L149.796 38.3624L150.666 37.2066ZM151.846 45.5366L150.689 44.6682L150.689 44.6682L151.846 45.5366ZM143.886 56.1393L142.73 55.2709C142.314 55.8252 142.349 56.5968 142.814 57.1105L143.886 56.1393ZM145.864 58.3228L144.792 59.2939C145.082 59.6139 145.5 59.7876 145.931 59.7678C146.362 59.7479 146.762 59.5364 147.021 59.1912L145.864 58.3228ZM154.157 47.2759L153 46.4075L154.157 47.2759ZM152.403 34.8924L153.273 33.7366L153.273 33.7365L152.403 34.8924ZM146.176 33.1662L145.019 32.2978C144.674 32.758 144.634 33.3792 144.918 33.8798C145.201 34.3803 145.755 34.665 146.327 34.6048L146.176 33.1662ZM147.387 31.5524L146.23 30.684L146.23 30.684L147.387 31.5524ZM145.608 18.9869L144.738 20.1428V20.1428L145.608 18.9869ZM139.067 17.2615L137.758 16.6456C137.533 17.1239 137.587 17.6869 137.899 18.1139C138.21 18.541 138.73 18.7642 139.254 18.6959L139.067 17.2615ZM136.328 6.22923L135.459 7.38506L135.459 7.38507L136.328 6.22923ZM123.78 7.95357L124.929 8.83237L124.929 8.83232L123.78 7.95357ZM123.023 8.94344L121.599 9.19826C121.7 9.76264 122.125 10.2141 122.682 10.3492C123.239 10.4844 123.823 10.2777 124.172 9.82224L123.023 8.94344ZM108.193 6.00489C110.687 2.68205 115.398 2.01365 118.716 4.51042L120.456 2.19877C115.859 -1.26011 109.333 -0.332955 105.879 4.26802L108.193 6.00489ZM81.0455 42.1677L108.193 6.00489L105.879 4.26802L78.7318 40.4308L81.0455 42.1677ZM82.9202 40.6843C82.1179 40.663 81.3022 40.4311 80.593 40.0358L79.1843 42.5627C80.2818 43.1745 81.5521 43.5421 82.8433 43.5764L82.9202 40.6843ZM108.19 6.00734L81.7249 41.2619L84.0386 42.9988L110.504 7.7442L108.19 6.00734ZM118.718 4.51281C115.399 2.01456 110.685 2.6843 108.19 6.00735L110.504 7.74419C112.039 5.69933 114.937 5.2883 116.979 6.82447L118.718 4.51281ZM120.593 14.491C122.623 11.2159 121.856 6.87358 118.718 4.51281L116.979 6.82447C118.908 8.27648 119.383 10.9513 118.134 12.9665L120.593 14.491ZM119.737 15.6206L120.512 14.6075L118.214 12.8499L117.439 13.863L119.737 15.6206ZM119.498 13.6163L119.47 13.5945L117.707 15.889L117.736 15.9108L119.498 13.6163ZM116.957 19.3838L119.774 15.632L117.46 13.8951L114.643 17.647L116.957 19.3838ZM116.957 19.3863C116.956 19.3852 116.956 19.3848 116.956 19.3854C116.956 19.3858 116.957 19.3864 116.957 19.3869C116.958 19.3877 116.957 19.3872 116.957 19.3854C116.957 19.3835 116.957 19.3829 116.957 19.3837C116.957 19.3842 116.956 19.3848 116.956 19.3853C116.956 19.3859 116.956 19.3854 116.957 19.3839L114.644 17.6469C113.685 18.9239 113.941 20.7374 115.218 21.6979L116.957 19.3863ZM116.955 19.3861C116.954 19.3877 116.953 19.3879 116.954 19.3874C116.954 19.387 116.955 19.3865 116.956 19.3862C116.957 19.3855 116.957 19.3858 116.955 19.3859C116.954 19.3861 116.954 19.3858 116.956 19.3862C116.957 19.3864 116.957 19.3867 116.958 19.387C116.959 19.3874 116.959 19.3874 116.957 19.3863L115.218 21.6979C116.495 22.6594 118.309 22.401 119.268 21.123L116.955 19.3861ZM120.209 15.0516L116.955 19.3861L119.268 21.123L122.522 16.7885L120.209 15.0516ZM120.522 14.602C120.424 14.754 120.319 14.9039 120.209 15.0518L122.522 16.7884C122.674 16.5859 122.818 16.3794 122.954 16.169L120.522 14.602ZM124.926 8.83477L120.589 14.5067L122.887 16.2642L127.225 10.5923L124.926 8.83477ZM135.461 7.38761C132.147 4.89391 127.446 5.54057 124.926 8.83475L127.225 10.5923C128.779 8.55954 131.678 8.16162 133.721 9.69923L135.461 7.38761ZM136.96 17.9711C139.465 14.6344 138.795 9.89621 135.461 7.38759L133.721 9.69925C135.779 11.2474 136.194 14.1735 134.647 16.2341L136.96 17.9711ZM135.031 20.5418L136.96 17.971L134.647 16.2342L132.717 18.8049L135.031 20.5418ZM134.83 18.5825L134.744 18.5175L133.004 20.8292L133.09 20.8942L134.83 18.5825ZM134.214 21.6372C134.449 21.3245 134.703 21.0359 134.973 20.7715L132.948 18.7052C132.574 19.0715 132.224 19.4702 131.901 19.9004L134.214 21.6372ZM130.69 26.3316L134.214 21.6372L131.901 19.9004L128.377 24.5948L130.69 26.3316ZM130.69 26.3341C130.689 26.333 130.689 26.3326 130.689 26.3332C130.69 26.3336 130.69 26.3342 130.69 26.3347C130.691 26.3355 130.69 26.335 130.69 26.3332C130.69 26.3313 130.69 26.3306 130.69 26.3315C130.69 26.332 130.69 26.3326 130.689 26.3331C130.689 26.3337 130.689 26.3332 130.69 26.3317L128.377 24.5947C127.418 25.8717 127.674 27.6852 128.951 28.6457L130.69 26.3341ZM130.688 26.3339C130.687 26.3355 130.686 26.3357 130.687 26.3352C130.687 26.3348 130.688 26.3343 130.689 26.3339C130.69 26.3333 130.69 26.3335 130.689 26.3337C130.687 26.3339 130.688 26.3336 130.689 26.334C130.69 26.3342 130.691 26.3345 130.691 26.3348C130.692 26.3352 130.692 26.3352 130.69 26.3341L128.951 28.6457C130.228 29.6072 132.042 29.3488 133.002 28.0708L130.688 26.3339ZM134.212 21.6397L130.688 26.3339L133.002 28.0708L136.526 23.3766L134.212 21.6397ZM144.74 20.1452C141.42 17.6469 136.706 18.3166 134.212 21.6397L136.526 23.3765C138.061 21.3317 140.959 20.9207 143.001 22.4568L144.74 20.1452ZM146.233 30.6815C148.727 27.3597 148.059 22.6426 144.74 20.1452L143.001 22.4568C145.043 23.9938 145.455 26.8989 143.919 28.9447L146.233 30.6815ZM140.806 37.911L146.233 30.6815L143.919 28.9447L138.492 36.1742L140.806 37.911ZM140.805 37.9111L140.806 37.9109L138.492 36.1743C138.264 36.4776 138.104 36.8141 138.01 37.1639L140.805 37.9111ZM139.109 40.4924L140.594 38.3655L138.222 36.7094L136.737 38.8363L139.109 40.4924ZM139.109 40.4946C139.108 40.4936 139.107 40.4933 139.108 40.4938C139.108 40.4943 139.109 40.4949 139.109 40.4954C139.11 40.4963 139.109 40.4958 139.109 40.494C139.109 40.4923 139.109 40.4916 139.109 40.4924C139.109 40.4929 139.108 40.4934 139.108 40.4939C139.108 40.4944 139.108 40.494 139.109 40.4923L136.737 38.8364C135.823 40.1457 136.141 41.9493 137.451 42.8652L139.109 40.4946ZM139.107 40.4948C139.106 40.4964 139.105 40.4966 139.106 40.4961C139.106 40.4956 139.107 40.4951 139.108 40.4947C139.109 40.494 139.109 40.4943 139.108 40.4945C139.106 40.4947 139.106 40.4944 139.108 40.4947C139.109 40.4949 139.11 40.4952 139.11 40.4955C139.111 40.4958 139.111 40.4958 139.109 40.4947L137.45 42.865C138.76 43.7817 140.564 43.4612 141.479 42.1509L139.107 40.4948ZM141.039 37.7261L139.107 40.4949L141.479 42.1508L143.412 39.382L141.039 37.7261ZM151.536 36.0508C148.193 33.5353 143.434 34.2959 141.039 37.7261L143.412 39.3821C144.869 37.2942 147.764 36.8327 149.796 38.3624L151.536 36.0508ZM153.003 46.4051C155.453 43.1406 154.797 38.5051 151.536 36.0507L149.796 38.3624C151.781 39.8563 152.182 42.6798 150.689 44.6682L153.003 46.4051ZM145.043 57.0078L153.003 46.4051L150.689 44.6682L142.73 55.2709L145.043 57.0078ZM146.936 57.3516L144.959 55.1682L142.814 57.1105L144.792 59.2939L146.936 57.3516ZM153 46.4075L144.708 57.4543L147.021 59.1912L155.314 48.1444L153 46.4075ZM151.533 36.0482C154.795 38.5027 155.452 43.141 153 46.4075L155.314 48.1444C158.724 43.6019 157.811 37.1515 153.273 33.7366L151.533 36.0482ZM146.327 34.6048C148.117 34.4165 149.977 34.8769 151.533 36.0482L153.273 33.7365C151.108 32.1078 148.512 31.4658 146.024 31.7276L146.327 34.6048ZM146.23 30.684L145.019 32.2978L147.333 34.0346L148.544 32.4208L146.23 30.684ZM144.738 20.1428C148.057 22.6403 148.726 27.3601 146.23 30.684L148.544 32.4209C151.997 27.8209 151.073 21.2892 146.477 17.8311L144.738 20.1428ZM139.254 18.6959C141.134 18.4512 143.103 18.9128 144.738 20.1428L146.477 17.8311C144.215 16.1283 141.481 15.4886 138.881 15.827L139.254 18.6959ZM135.459 7.38507C138.369 9.57532 139.253 13.4703 137.758 16.6456L140.376 17.8774C142.442 13.4881 141.227 8.10491 137.198 5.0734L135.459 7.38507ZM124.929 8.83232C127.448 5.5382 132.147 4.89301 135.459 7.38506L137.198 5.0734C132.616 1.62535 126.115 2.51919 122.631 7.07481L124.929 8.83232ZM124.172 9.82224L124.929 8.83237L122.631 7.07477L121.874 8.06464L124.172 9.82224ZM118.716 4.5104C120.297 5.69998 121.275 7.39023 121.599 9.19826L124.447 8.68862C124 6.19056 122.643 3.84498 120.456 2.19878L118.716 4.5104Z" fill="white"/>
</svg>
