<svg width="259" height="252" viewBox="0 0 259 252" fill="none" xmlns="http://www.w3.org/2000/svg">
<path fill-rule="evenodd" clip-rule="evenodd" d="M86.3357 144.91L87.6847 146.713C96.0807 161.442 112.686 171.318 131.414 171.318C148.338 171.318 163.232 163.119 172.141 150.665L173.086 149.343L181.781 152.054L180.025 154.579C169.29 170.016 151.328 180.332 131.414 180.332C109.433 180.332 89.8607 168.7 79.8759 151.185L78.5269 149.382L86.3357 144.91Z" fill="white"/>
<path fill-rule="evenodd" clip-rule="evenodd" d="M60.0416 85.4939C69.7774 78.6518 83.2041 81.0155 90.0308 90.7732L100.607 105.891C97.6468 110.554 93.7088 109.628 90.9205 107.745L82.6672 95.9481C78.6921 90.2663 70.874 88.89 65.2049 92.8741C59.5358 96.8581 58.1626 104.694 62.1378 110.376L86.8908 145.756C87.0031 145.929 87.1178 146.098 87.2348 146.264C90.7998 151.308 91.1375 152.628 91.8509 153.697C92.6642 154.915 93.9658 155.808 101.094 161.523C93.3926 162.539 85.4041 159.331 80.6357 152.516L54.7742 115.551C47.9474 105.793 50.3057 92.336 60.0416 85.4939Z" fill="white"/>
<path fill-rule="evenodd" clip-rule="evenodd" d="M134.594 48.6323C139.219 42.4642 147.958 41.2222 154.112 45.8582C157.042 48.0656 158.858 51.2072 159.458 54.5592L160.635 53.0181C165.303 46.9077 174.013 45.7097 180.151 50.3336C185.547 54.3983 187.179 61.6207 184.411 67.5091C187.895 67.0551 191.552 67.9124 194.583 70.1953C200.737 74.8313 201.976 83.5897 197.351 89.7578L195.467 92.2702C198.793 91.9199 202.258 92.7779 205.152 94.9576C211.217 99.5265 212.438 108.158 207.879 114.237L180.531 150.705C178.755 153.074 176.39 154.775 173.777 155.733L174.472 153.925L175.486 149.566C176.014 149.102 176.5 148.579 176.936 147.997L204.285 111.529C207.351 107.44 206.53 101.634 202.45 98.5605C198.27 95.4116 192.318 96.3629 189.323 100.658L186.317 104.969C185.606 105.989 184.204 106.238 183.186 105.525C182.168 104.812 181.92 103.407 182.631 102.387L184.941 99.0756C185.013 98.8047 185.137 98.5431 185.316 98.3052L193.756 87.05C196.889 82.8717 196.05 76.9384 191.881 73.7979C187.712 70.6575 181.792 71.4988 178.659 75.6773L173.178 82.9855C172.432 83.9804 171.022 84.1808 170.03 83.4331C169.037 82.6853 168.837 81.2725 169.583 80.2778L175.064 72.9694C175.498 72.3911 175.968 71.8561 176.468 71.3652L176.334 71.2639L179.335 67.2617C182.486 63.0603 181.642 57.0943 177.45 53.9364C173.284 50.7983 167.373 51.6115 164.205 55.7581L157.459 64.5884C157.277 64.8705 157.084 65.148 156.88 65.4207L151.819 72.1688C151.073 73.1637 149.664 73.3642 148.671 72.6164C147.679 71.8687 147.479 70.4559 148.225 69.4612L152.605 63.6201L152.561 63.5863L153.766 62.0091C156.317 57.8911 155.35 52.4288 151.41 49.4608C147.241 46.3203 141.322 47.1616 138.188 51.3401L97.0262 106.228C95.3982 106.185 93.7761 105.719 92.3712 104.935L134.594 48.6323Z" fill="white"/>
<path d="M154.112 45.8582L155.467 44.0604L155.467 44.0603L154.112 45.8582ZM134.594 48.6323L132.793 47.2818L132.793 47.2818L134.594 48.6323ZM159.458 54.5592L157.242 54.9553C157.399 55.8338 158.06 56.5365 158.927 56.7467C159.795 56.9569 160.704 56.6349 161.246 55.9257L159.458 54.5592ZM160.635 53.0181L162.424 54.3847L162.424 54.3846L160.635 53.0181ZM180.151 50.3336L178.797 52.1314L178.797 52.1314L180.151 50.3336ZM184.411 67.5091L182.374 66.5515C182.024 67.2958 182.108 68.1717 182.593 68.836C183.077 69.5003 183.886 69.8473 184.702 69.7411L184.411 67.5091ZM194.583 70.1953L193.228 71.9932L193.228 71.9932L194.583 70.1953ZM197.351 89.7578L195.55 88.4074L195.55 88.4074L197.351 89.7578ZM195.467 92.2702L193.666 90.9198C193.129 91.6361 193.067 92.6025 193.509 93.3811C193.951 94.1598 194.812 94.6025 195.702 94.5088L195.467 92.2702ZM205.152 94.9576L206.506 93.1598L206.506 93.1597L205.152 94.9576ZM207.879 114.237L206.079 112.886L206.079 112.886L207.879 114.237ZM180.531 150.705L182.332 152.056L182.332 152.056L180.531 150.705ZM173.777 155.733L171.676 154.927C171.36 155.751 171.554 156.684 172.174 157.313C172.794 157.942 173.724 158.151 174.553 157.847L173.777 155.733ZM174.472 153.925L176.573 154.731C176.61 154.634 176.64 154.536 176.664 154.435L174.472 153.925ZM175.486 149.566L174 147.876C173.647 148.186 173.401 148.598 173.294 149.056L175.486 149.566ZM176.936 147.997L178.737 149.348L178.737 149.348L176.936 147.997ZM204.285 111.529L202.484 110.179L202.484 110.179L204.285 111.529ZM202.45 98.5605L201.095 100.358L201.095 100.358L202.45 98.5605ZM189.323 100.658L187.477 99.3707L187.477 99.3708L189.323 100.658ZM186.317 104.969L188.163 106.256L188.163 106.256L186.317 104.969ZM183.186 105.525L184.478 103.681L184.477 103.681L183.186 105.525ZM182.631 102.387L180.785 101.099L180.785 101.099L182.631 102.387ZM184.941 99.0756L186.787 100.363C186.937 100.148 187.048 99.9093 187.115 99.6564L184.941 99.0756ZM185.316 98.3052L183.515 96.9547L183.515 96.955L185.316 98.3052ZM193.756 87.05L191.955 85.6995L191.955 85.6995L193.756 87.05ZM191.881 73.7979L190.527 75.5958L190.527 75.5958L191.881 73.7979ZM178.659 75.6773L180.459 77.0277L180.459 77.0277L178.659 75.6773ZM173.178 82.9855L171.377 81.635L171.377 81.635L173.178 82.9855ZM170.03 83.4331L168.675 85.2309L168.675 85.2309L170.03 83.4331ZM169.583 80.2778L171.384 81.6284L171.384 81.6283L169.583 80.2778ZM175.064 72.9694L173.263 71.619L173.263 71.619L175.064 72.9694ZM176.468 71.3652L178.044 72.972C178.512 72.513 178.757 71.8729 178.714 71.2188C178.672 70.5647 178.346 69.9617 177.822 69.5673L176.468 71.3652ZM176.334 71.2639L174.533 69.9135C173.788 70.9066 173.988 72.315 174.979 73.0618L176.334 71.2639ZM179.335 67.2617L177.534 65.9112L177.534 65.9113L179.335 67.2617ZM177.45 53.9364L176.095 55.7342L176.095 55.7343L177.45 53.9364ZM164.205 55.7581L162.417 54.3915L162.417 54.3916L164.205 55.7581ZM157.459 64.5884L155.67 63.2219C155.634 63.2699 155.599 63.3194 155.566 63.3702L157.459 64.5884ZM156.88 65.4207L158.681 66.7711L158.681 66.7709L156.88 65.4207ZM151.819 72.1688L150.019 70.8184L150.019 70.8184L151.819 72.1688ZM148.671 72.6164L147.317 74.4143L147.317 74.4143L148.671 72.6164ZM148.225 69.4612L150.026 70.8118L150.026 70.8116L148.225 69.4612ZM152.605 63.6201L154.406 64.9706C155.145 63.9845 154.954 62.587 153.977 61.8357L152.605 63.6201ZM152.561 63.5863L150.772 62.2197C150.019 63.2054 150.206 64.6146 151.189 65.3707L152.561 63.5863ZM153.766 62.0091L155.555 63.3756C155.599 63.3173 155.641 63.2568 155.68 63.1943L153.766 62.0091ZM151.41 49.4608L152.765 47.6629L152.765 47.6629L151.41 49.4608ZM138.188 51.3401L139.989 52.6906L139.989 52.6905L138.188 51.3401ZM97.0262 106.228L96.9663 108.479C97.6957 108.498 98.3892 108.163 98.8269 107.579L97.0262 106.228ZM92.3712 104.935L90.5704 103.584C90.1807 104.104 90.0345 104.767 90.1694 105.402C90.3043 106.037 90.7071 106.584 91.2744 106.9L92.3712 104.935ZM155.467 44.0603C148.317 38.6744 138.165 40.1188 132.793 47.2818L136.394 49.9827C140.274 44.8096 147.599 43.77 152.758 47.6561L155.467 44.0603ZM161.673 54.163C160.978 50.2748 158.869 46.6234 155.467 44.0604L152.758 47.656C155.216 49.5079 156.738 52.1396 157.242 54.9553L161.673 54.163ZM158.847 51.6515L157.669 53.1926L161.246 55.9257L162.424 54.3847L158.847 51.6515ZM181.506 48.5357C174.378 43.1666 164.265 44.5591 158.846 51.6516L162.424 54.3846C166.342 49.2562 173.648 48.2527 178.797 52.1314L181.506 48.5357ZM186.448 68.4666C189.659 61.6349 187.771 53.2553 181.506 48.5357L178.797 52.1314C183.324 55.5413 184.698 61.6065 182.374 66.5515L186.448 68.4666ZM195.937 68.3975C192.418 65.7463 188.165 64.75 184.12 65.277L184.702 69.7411C187.625 69.3602 190.687 70.0786 193.228 71.9932L195.937 68.3975ZM199.151 91.1083C204.521 83.9482 203.084 73.7811 195.937 68.3975L193.228 71.9932C198.39 75.8816 199.431 83.2313 195.55 88.4074L199.151 91.1083ZM197.267 93.6207L199.151 91.1082L195.55 88.4074L193.666 90.9198L197.267 93.6207ZM206.506 93.1597C203.139 90.6238 199.101 89.6241 195.231 90.0317L195.702 94.5088C198.484 94.2157 201.376 94.9321 203.797 96.7555L206.506 93.1597ZM209.68 115.587C214.983 108.517 213.564 98.4763 206.506 93.1598L203.797 96.7555C208.87 100.577 209.893 107.8 206.079 112.886L209.68 115.587ZM182.332 152.056L209.68 115.587L206.079 112.886L178.73 149.355L182.332 152.056ZM174.553 157.847C177.563 156.742 180.287 154.782 182.332 152.056L178.73 149.355C177.222 151.366 175.217 152.807 173.002 153.62L174.553 157.847ZM175.879 156.54L176.573 154.731L172.37 153.118L171.676 154.927L175.879 156.54ZM176.664 154.435L177.679 150.076L173.294 149.056L172.279 153.414L176.664 154.435ZM175.136 146.647C174.793 147.104 174.412 147.514 174 147.876L176.973 151.256C177.615 150.691 178.208 150.054 178.737 149.348L175.136 146.647ZM202.484 110.179L175.136 146.647L178.737 149.348L206.086 112.879L202.484 110.179ZM201.095 100.358C204.183 102.684 204.807 107.082 202.484 110.179L206.085 112.88C209.896 107.799 208.876 100.584 203.804 96.7626L201.095 100.358ZM191.169 101.946C193.436 98.6953 197.936 97.9779 201.095 100.358L203.804 96.7626C198.604 92.8453 191.201 94.0305 187.477 99.3707L191.169 101.946ZM188.163 106.256L191.169 101.946L187.477 99.3708L184.471 103.681L188.163 106.256ZM181.895 107.368C183.933 108.796 186.741 108.296 188.163 106.256L184.471 103.681C184.469 103.684 184.468 103.684 184.469 103.683C184.47 103.683 184.471 103.682 184.472 103.681C184.474 103.68 184.474 103.68 184.473 103.68C184.472 103.681 184.472 103.68 184.475 103.681C184.476 103.681 184.478 103.682 184.479 103.682C184.48 103.683 184.48 103.683 184.478 103.681L181.895 107.368ZM180.785 101.099C179.365 103.136 179.859 105.942 181.895 107.368L184.477 103.681C184.475 103.679 184.475 103.679 184.476 103.68C184.476 103.681 184.477 103.681 184.477 103.682C184.478 103.683 184.477 103.682 184.477 103.679C184.476 103.676 184.477 103.674 184.476 103.675C184.476 103.676 184.476 103.677 184.476 103.677C184.476 103.678 184.476 103.677 184.478 103.674L180.785 101.099ZM183.094 97.7881L180.785 101.099L184.478 103.674L186.787 100.363L183.094 97.7881ZM183.515 96.955C183.161 97.427 182.911 97.9507 182.766 98.4948L187.115 99.6564C187.115 99.657 187.115 99.6577 187.115 99.6582C187.114 99.6588 187.115 99.6579 187.116 99.6554L183.515 96.955ZM191.955 85.6995L183.515 96.9547L187.116 99.6556L195.557 88.4004L191.955 85.6995ZM190.527 75.5958C193.703 77.9887 194.345 82.5132 191.955 85.6995L195.557 88.4004C199.434 83.2302 198.397 75.8882 193.235 72.0001L190.527 75.5958ZM180.459 77.0277C182.847 73.8442 187.353 73.2052 190.527 75.5958L193.235 72.0001C188.071 68.1097 180.738 69.1533 176.858 74.3268L180.459 77.0277ZM174.979 84.3359L180.459 77.0277L176.858 74.3268L171.377 81.635L174.979 84.3359ZM168.675 85.2309C170.664 86.7288 173.487 86.3255 174.979 84.3359L171.377 81.635C171.375 81.6375 171.375 81.6378 171.376 81.6371C171.376 81.6364 171.377 81.6356 171.379 81.635C171.38 81.6338 171.381 81.6341 171.379 81.6343C171.378 81.6345 171.379 81.6341 171.381 81.6348C171.383 81.6351 171.384 81.6357 171.385 81.6362C171.387 81.6369 171.386 81.6369 171.384 81.6352L168.675 85.2309ZM167.783 78.9273C166.293 80.914 166.69 83.7355 168.675 85.2309L171.384 81.6352C171.382 81.6336 171.382 81.6331 171.382 81.6339C171.383 81.6346 171.384 81.6354 171.384 81.6361C171.385 81.6371 171.384 81.636 171.383 81.6327C171.383 81.6295 171.383 81.6279 171.383 81.6288C171.383 81.6294 171.383 81.6302 171.382 81.6308C171.382 81.6316 171.382 81.6308 171.384 81.6284L167.783 78.9273ZM173.263 71.619L167.783 78.9274L171.384 81.6283L176.865 74.3198L173.263 71.619ZM174.892 69.7583C174.31 70.3287 173.765 70.9493 173.263 71.619L176.865 74.3199C177.23 73.8329 177.625 73.3836 178.044 72.972L174.892 69.7583ZM174.979 73.0618L175.114 73.163L177.822 69.5673L177.688 69.4661L174.979 73.0618ZM177.534 65.9113L174.533 69.9135L178.135 72.6144L181.136 68.6121L177.534 65.9113ZM176.095 55.7343C179.295 58.1445 179.941 62.7018 177.534 65.9112L181.136 68.6122C185.03 63.4188 183.988 56.044 178.804 52.1385L176.095 55.7343ZM165.994 57.1246C168.412 53.96 172.919 53.3414 176.095 55.7342L178.804 52.1386C173.649 48.2553 166.335 49.2629 162.417 54.3915L165.994 57.1246ZM159.248 65.9549L165.994 57.1245L162.417 54.3916L155.67 63.2219L159.248 65.9549ZM158.681 66.7709C158.917 66.4558 159.141 66.1343 159.352 65.8067L155.566 63.3702C155.414 63.6068 155.252 63.8403 155.079 64.0704L158.681 66.7709ZM153.62 73.5193L158.681 66.7711L155.079 64.0702L150.019 70.8184L153.62 73.5193ZM147.317 74.4143C149.305 75.9121 152.128 75.5089 153.62 73.5193L150.019 70.8184C150.017 70.8209 150.016 70.8212 150.017 70.8204C150.018 70.8198 150.019 70.819 150.02 70.8183C150.022 70.8172 150.022 70.8175 150.021 70.8177C150.02 70.8179 150.02 70.8175 150.023 70.8181C150.024 70.8185 150.026 70.819 150.027 70.8196C150.028 70.8202 150.028 70.8203 150.026 70.8186L147.317 74.4143ZM146.424 68.1106C144.934 70.0974 145.332 72.9189 147.317 74.4143L150.026 70.8186C150.023 70.8169 150.023 70.8164 150.024 70.8172C150.024 70.8179 150.025 70.8188 150.025 70.8194C150.026 70.8205 150.025 70.8194 150.025 70.8161C150.024 70.8128 150.025 70.8113 150.025 70.8122C150.024 70.8128 150.024 70.8135 150.024 70.8142C150.023 70.815 150.024 70.8142 150.026 70.8118L146.424 68.1106ZM150.804 62.2697L146.424 68.1108L150.026 70.8116L154.406 64.9706L150.804 62.2697ZM151.189 65.3707L151.233 65.4046L153.977 61.8357L153.933 61.8018L151.189 65.3707ZM151.977 60.6425L150.772 62.2197L154.35 64.9528L155.555 63.3756L151.977 60.6425ZM150.056 51.2587C153.057 53.5192 153.797 57.6851 151.853 60.8239L155.68 63.1943C158.837 58.0971 157.644 51.3383 152.765 47.6629L150.056 51.2587ZM139.989 52.6905C142.376 49.5071 146.883 48.8681 150.056 51.2587L152.765 47.6629C147.6 43.7726 140.267 44.8162 136.387 49.9897L139.989 52.6905ZM98.8269 107.579L139.989 52.6906L136.387 49.9897L95.2254 104.878L98.8269 107.579ZM97.086 103.978C95.8389 103.945 94.5708 103.584 93.468 102.969L91.2744 106.9C92.9815 107.853 94.9575 108.425 96.9663 108.479L97.086 103.978ZM132.793 47.2818L90.5704 103.584L94.172 106.285L136.394 49.9827L132.793 47.2818Z" fill="white"/>
<ellipse cx="116.575" cy="147.163" rx="4.04705" ry="4.05615" fill="white"/>
<path fill-rule="evenodd" clip-rule="evenodd" d="M179.1 113.377C181.079 114.88 181.468 117.707 179.967 119.691L158.94 147.491C149.775 161.741 135.042 160.215 128.805 157.641C126.509 156.693 125.414 154.059 126.359 151.758C127.305 149.456 129.933 148.358 132.229 149.306C136.161 150.929 145.504 151.864 151.456 142.491L151.554 142.335L172.8 114.246C174.301 112.262 177.121 111.873 179.1 113.377Z" fill="white"/>
<path fill-rule="evenodd" clip-rule="evenodd" d="M95.822 54.7156C88.9952 44.9579 75.5686 42.5942 65.8327 49.4363C56.0969 56.2784 53.7386 69.7353 60.5653 79.493L67.7409 89.7494L74.4614 83.6552L67.9289 74.3181C63.9538 68.6363 65.327 60.8005 70.9961 56.8165C76.6651 52.8324 84.4833 54.2087 88.4584 59.8905L96.7144 71.6911C99.5027 73.5735 103.44 74.4971 106.399 69.8343L95.822 54.7156Z" fill="white"/>
<path fill-rule="evenodd" clip-rule="evenodd" d="M159.905 9.80363C153.751 5.16762 145.012 6.40964 140.387 12.5777L98.1638 68.8808C99.569 69.6646 101.191 70.131 102.819 70.1739L143.981 15.2856C147.115 11.107 153.035 10.2658 157.204 13.4062C161.144 16.3742 162.11 21.8365 159.559 25.9545L158.354 27.5317L158.398 27.5656L154.018 33.4066C153.272 34.4013 153.472 35.8141 154.465 36.5619C155.457 37.3096 156.867 37.1092 157.613 36.1143L162.673 29.3661C162.878 29.0935 163.071 28.816 163.252 28.5338L169.999 19.7035C173.167 15.5569 179.077 14.7438 183.243 17.8818C187.435 21.0397 188.279 27.0058 185.128 31.2071L182.127 35.2094L182.261 35.3106C181.761 35.8016 181.291 36.3365 180.857 36.9148L175.377 44.2233C174.631 45.2179 174.83 46.6307 175.823 47.3785C176.816 48.1263 178.225 47.9258 178.971 46.9309L184.452 39.6227C187.585 35.4442 193.505 34.6029 197.674 37.7434C201.843 40.8839 202.683 46.8171 199.549 50.9954L191.109 62.2506C190.93 62.4885 190.806 62.7502 190.734 63.021L188.425 66.3323C187.713 67.3525 187.962 68.7574 188.979 69.4701C189.997 70.1831 191.399 69.9342 192.11 68.9143L195.116 64.6037C198.112 60.3084 204.063 59.357 208.243 62.5059C212.323 65.5793 213.144 71.3855 210.078 75.4745L197.697 91.984L200.773 95.3832L213.673 78.1823C218.231 72.1036 217.01 63.472 210.945 58.9031C208.051 56.7234 204.586 55.8653 201.26 56.2157L203.144 53.7033C207.769 47.5352 206.53 38.7768 200.376 34.1408C197.345 31.8579 193.688 31.0005 190.204 31.4545C192.972 25.5661 191.341 18.3437 185.944 14.279C179.806 9.65509 171.097 10.8531 166.428 16.9635L165.251 18.5046C164.652 15.1526 162.836 12.0111 159.905 9.80363Z" fill="white"/>
<path d="M140.387 12.5777L138.586 11.2273L138.586 11.2273L140.387 12.5777ZM159.905 9.80363L161.26 8.0058L161.26 8.00577L159.905 9.80363ZM98.1638 68.8808L96.3631 67.5304C95.9733 68.0501 95.8271 68.713 95.9621 69.3484C96.097 69.9839 96.5 70.5301 97.0674 70.8466L98.1638 68.8808ZM102.819 70.1739L102.76 72.424C103.489 72.4433 104.183 72.108 104.62 71.5244L102.819 70.1739ZM143.981 15.2856L145.782 16.636L145.782 16.636L143.981 15.2856ZM157.204 13.4062L158.558 11.6084L158.558 11.6084L157.204 13.4062ZM159.559 25.9545L161.348 27.3211C161.392 27.2627 161.434 27.2022 161.473 27.1397L159.559 25.9545ZM158.354 27.5317L156.566 26.1651C155.813 27.1508 155.999 28.56 156.982 29.3161L158.354 27.5317ZM158.398 27.5656L160.199 28.916C160.939 27.9299 160.747 26.5324 159.77 25.7811L158.398 27.5656ZM154.018 33.4066L155.819 34.7572L155.819 34.7571L154.018 33.4066ZM154.465 36.5619L153.11 38.3597L153.11 38.3597L154.465 36.5619ZM157.613 36.1143L155.812 34.7638L155.812 34.7638L157.613 36.1143ZM162.673 29.3661L164.474 30.7166L164.474 30.7163L162.673 29.3661ZM163.252 28.5338L161.464 27.1674C161.427 27.2154 161.392 27.2648 161.36 27.3156L163.252 28.5338ZM169.999 19.7035L168.21 18.337L168.21 18.337L169.999 19.7035ZM183.243 17.8818L181.888 19.6797L181.888 19.6797L183.243 17.8818ZM185.128 31.2071L183.327 29.8567L183.327 29.8567L185.128 31.2071ZM182.127 35.2094L180.326 33.859C179.582 34.852 179.781 36.2604 180.773 37.0072L182.127 35.2094ZM182.261 35.3106L183.838 36.9175C184.305 36.4585 184.55 35.8183 184.507 35.1643C184.465 34.5102 184.139 33.9072 183.616 33.5128L182.261 35.3106ZM180.857 36.9148L179.057 35.5644L179.057 35.5644L180.857 36.9148ZM175.377 44.2233L177.177 45.5738L177.177 45.5737L175.377 44.2233ZM178.971 46.9309L177.17 45.5804L177.17 45.5805L178.971 46.9309ZM184.452 39.6227L186.253 40.9731L186.253 40.9731L184.452 39.6227ZM199.549 50.9954L197.748 49.645L197.748 49.645L199.549 50.9954ZM191.109 62.2506L189.308 60.9002L189.308 60.9005L191.109 62.2506ZM190.734 63.021L192.58 64.3086C192.73 64.0939 192.841 63.8547 192.908 63.6019L190.734 63.021ZM188.425 66.3323L186.578 65.0447L186.578 65.0448L188.425 66.3323ZM188.979 69.4701L190.271 67.6266L190.271 67.6264L188.979 69.4701ZM192.11 68.9143L193.956 70.2018L193.957 70.2018L192.11 68.9143ZM195.116 64.6037L193.27 63.3162L193.27 63.3162L195.116 64.6037ZM208.243 62.5059L206.889 64.3037L206.889 64.3037L208.243 62.5059ZM210.078 75.4745L208.277 74.124L208.277 74.124L210.078 75.4745ZM197.697 91.984L195.896 90.6335C195.25 91.4957 195.305 92.6952 196.028 93.4943L197.697 91.984ZM200.773 95.3832L199.104 96.8935C199.555 97.3919 200.205 97.6626 200.877 97.6317C201.548 97.6008 202.171 97.2714 202.574 96.7336L200.773 95.3832ZM213.673 78.1823L211.872 76.8319L211.872 76.8319L213.673 78.1823ZM210.945 58.9031L212.299 57.1052L212.299 57.1051L210.945 58.9031ZM201.26 56.2157L199.459 54.8653C198.922 55.5815 198.86 56.548 199.302 57.3266C199.744 58.1052 200.605 58.548 201.496 58.4542L201.26 56.2157ZM203.144 53.7033L201.343 52.3528L201.343 52.3529L203.144 53.7033ZM200.376 34.1408L199.022 35.9386L199.022 35.9386L200.376 34.1408ZM190.204 31.4545L188.167 30.4969C187.817 31.2412 187.901 32.1171 188.386 32.7814C188.871 33.4458 189.679 33.7928 190.495 33.6865L190.204 31.4545ZM185.944 14.279L184.59 16.0769L184.59 16.0769L185.944 14.279ZM166.428 16.9635L168.217 18.3301L168.217 18.33L166.428 16.9635ZM165.251 18.5046L163.035 18.9007C163.192 19.7792 163.853 20.482 164.721 20.6922C165.588 20.9024 166.498 20.5803 167.039 19.8712L165.251 18.5046ZM142.188 13.9282C146.067 8.75508 153.392 7.71539 158.551 11.6015L161.26 8.00577C154.11 2.61985 143.958 4.0642 138.586 11.2273L142.188 13.9282ZM99.9646 70.2313L142.188 13.9282L138.586 11.2273L96.3631 67.5304L99.9646 70.2313ZM102.879 67.9238C101.632 67.8909 100.363 67.5303 99.2603 66.9151L97.0674 70.8466C98.7747 71.799 100.751 72.371 102.76 72.424L102.879 67.9238ZM142.181 13.9351L101.019 68.8235L104.62 71.5244L145.782 16.636L142.181 13.9351ZM158.558 11.6084C153.394 7.718 146.06 8.76159 142.181 13.9351L145.782 16.636C148.17 13.4525 152.676 12.8135 155.849 15.2041L158.558 11.6084ZM161.473 27.1397C164.63 22.0425 163.437 15.2837 158.558 11.6084L155.849 15.2041C158.85 17.4646 159.59 21.6306 157.646 24.7693L161.473 27.1397ZM160.143 28.8983L161.348 27.3211L157.771 24.588L156.566 26.1651L160.143 28.8983ZM159.77 25.7811L159.726 25.7473L156.982 29.3161L157.026 29.35L159.77 25.7811ZM155.819 34.7571L160.199 28.916L156.598 26.2152L152.217 32.0562L155.819 34.7571ZM155.819 34.764C155.817 34.7624 155.816 34.7619 155.817 34.7627C155.818 34.7634 155.818 34.7642 155.819 34.7649C155.819 34.7659 155.818 34.7648 155.818 34.7615C155.818 34.7583 155.818 34.7567 155.818 34.7576C155.818 34.7582 155.817 34.759 155.817 34.7596C155.817 34.7604 155.817 34.7596 155.819 34.7572L152.217 32.0561C150.727 34.0428 151.125 36.8644 153.11 38.3597L155.819 34.764ZM155.812 34.7638C155.81 34.7663 155.809 34.7667 155.81 34.7659C155.811 34.7652 155.812 34.7644 155.813 34.7638C155.815 34.7626 155.816 34.7629 155.814 34.7631C155.813 34.7633 155.813 34.7629 155.816 34.7636C155.817 34.7639 155.819 34.7645 155.82 34.765C155.821 34.7657 155.821 34.7657 155.819 34.764L153.11 38.3597C155.099 39.8576 157.921 39.4544 159.413 37.4647L155.812 34.7638ZM160.873 28.0157L155.812 34.7638L159.413 37.4647L164.474 30.7166L160.873 28.0157ZM161.36 27.3156C161.207 27.5522 161.045 27.7857 160.872 28.0159L164.474 30.7163C164.71 30.4012 164.934 30.0797 165.145 29.7521L161.36 27.3156ZM168.21 18.337L161.464 27.1674L165.041 29.9003L171.787 21.07L168.21 18.337ZM184.597 16.084C179.442 12.2007 172.128 13.2083 168.21 18.337L171.787 21.07C174.205 17.9054 178.712 17.2868 181.888 19.6797L184.597 16.084ZM186.929 32.5576C190.824 27.3642 189.782 19.9894 184.597 16.084L181.888 19.6797C185.088 22.0899 185.734 26.6473 183.327 29.8567L186.929 32.5576ZM183.928 36.5598L186.929 32.5576L183.327 29.8567L180.326 33.859L183.928 36.5598ZM183.616 33.5128L183.481 33.4116L180.773 37.0072L180.907 37.1084L183.616 33.5128ZM182.658 38.2653C183.023 37.7783 183.418 37.329 183.838 36.9175L180.685 33.7037C180.104 34.2741 179.559 34.8948 179.057 35.5644L182.658 38.2653ZM177.177 45.5737L182.658 38.2653L179.057 35.5644L173.576 42.8728L177.177 45.5737ZM177.177 45.5807C177.175 45.579 177.175 45.5785 177.176 45.5793C177.176 45.58 177.177 45.5808 177.177 45.5815C177.178 45.5826 177.177 45.5814 177.177 45.5782C177.176 45.5749 177.177 45.5734 177.176 45.5742C177.176 45.5748 177.176 45.5756 177.176 45.5763C177.175 45.577 177.175 45.5763 177.177 45.5738L173.576 42.8727C172.086 44.8595 172.484 47.681 174.469 49.1763L177.177 45.5807ZM177.17 45.5805C177.169 45.583 177.168 45.5833 177.169 45.5825C177.17 45.5818 177.171 45.581 177.172 45.5804C177.174 45.5793 177.174 45.5795 177.173 45.5797C177.171 45.5799 177.172 45.5795 177.174 45.5802C177.176 45.5806 177.177 45.5811 177.179 45.5817C177.18 45.5823 177.18 45.5823 177.177 45.5807L174.469 49.1763C176.457 50.6742 179.28 50.271 180.772 48.2813L177.17 45.5805ZM182.651 38.2722L177.17 45.5804L180.772 48.2814L186.253 40.9731L182.651 38.2722ZM199.028 35.9455C193.864 32.0551 186.531 33.0987 182.651 38.2723L186.253 40.9731C188.64 37.7896 193.146 37.1507 196.32 39.5412L199.028 35.9455ZM201.35 52.3459C205.227 47.1756 204.19 39.8336 199.028 35.9455L196.32 39.5412C199.496 41.9341 200.138 46.4586 197.748 49.645L201.35 52.3459ZM192.91 63.6011L201.35 52.3458L197.748 49.645L189.308 60.9002L192.91 63.6011ZM192.908 63.6019C192.908 63.6024 192.908 63.6031 192.908 63.6036C192.908 63.6042 192.908 63.6033 192.91 63.6008L189.308 60.9005C188.954 61.3725 188.704 61.8961 188.559 62.4402L192.908 63.6019ZM190.271 67.6199L192.58 64.3086L188.888 61.7335L186.578 65.0447L190.271 67.6199ZM190.271 67.6264C190.268 67.6248 190.268 67.6244 190.269 67.6252C190.27 67.626 190.27 67.6268 190.271 67.6276C190.271 67.6287 190.271 67.6277 190.27 67.6246C190.269 67.6214 190.27 67.6199 190.27 67.6207C190.27 67.6212 190.269 67.6219 190.269 67.6225C190.269 67.6232 190.269 67.6224 190.271 67.6198L186.578 65.0448C185.158 67.0817 185.652 69.8879 187.688 71.3139L190.271 67.6264ZM190.264 67.6267C190.262 67.6292 190.262 67.6296 190.263 67.6287C190.263 67.628 190.264 67.6272 190.265 67.6265C190.267 67.6253 190.268 67.6256 190.266 67.6258C190.265 67.6261 190.265 67.6257 190.268 67.6262C190.269 67.6266 190.271 67.627 190.272 67.6276C190.274 67.6282 190.273 67.6282 190.271 67.6266L187.688 71.3136C189.727 72.7419 192.534 72.2417 193.956 70.2018L190.264 67.6267ZM193.27 63.3162L190.264 67.6268L193.957 70.2018L196.962 65.8912L193.27 63.3162ZM209.597 60.7081C204.398 56.7908 196.994 57.976 193.27 63.3162L196.962 65.8913C199.229 62.6408 203.729 61.9233 206.889 64.3037L209.597 60.7081ZM211.879 76.825C215.689 71.744 214.67 64.529 209.597 60.708L206.889 64.3037C209.976 66.6295 210.6 71.0271 208.277 74.124L211.879 76.825ZM199.498 93.3344L211.879 76.8249L208.277 74.124L195.896 90.6335L199.498 93.3344ZM202.442 93.8729L199.366 90.4736L196.028 93.4943L199.104 96.8935L202.442 93.8729ZM211.872 76.8319L198.973 94.0328L202.574 96.7336L215.473 79.5328L211.872 76.8319ZM209.59 60.7009C214.663 64.5222 215.687 71.7451 211.872 76.8319L215.473 79.5328C220.776 72.4621 219.357 62.4217 212.299 57.1052L209.59 60.7009ZM201.496 58.4542C204.278 58.1612 207.17 58.8775 209.591 60.701L212.299 57.1051C208.932 54.5692 204.894 53.5695 201.024 53.9772L201.496 58.4542ZM201.343 52.3529L199.459 54.8653L203.061 57.5661L204.945 55.0537L201.343 52.3529ZM199.022 35.9386C204.183 39.827 205.225 47.1767 201.343 52.3528L204.945 55.0537C210.314 47.8937 208.877 37.7265 201.73 32.3429L199.022 35.9386ZM190.495 33.6865C193.418 33.3056 196.48 34.024 199.022 35.9386L201.73 32.3429C198.211 29.6917 193.958 28.6954 189.913 29.2225L190.495 33.6865ZM184.59 16.0769C189.117 19.4867 190.492 25.5519 188.167 30.4969L192.241 32.4121C195.453 25.5803 193.564 17.2008 187.299 12.4811L184.59 16.0769ZM168.217 18.33C172.135 13.2017 179.441 12.1981 184.59 16.0769L187.299 12.4811C180.171 7.11208 170.058 8.50452 164.64 15.597L168.217 18.33ZM167.039 19.8712L168.217 18.3301L164.64 15.5969L163.462 17.138L167.039 19.8712ZM158.551 11.6015C161.009 13.4533 162.532 16.085 163.035 18.9007L167.467 18.1085C166.771 14.2203 164.662 10.5688 161.26 8.0058L158.551 11.6015Z" fill="white"/>
<path d="M40.8695 147.62L37.3587 165H29.2249L27.5216 156.727L25.7836 165H17.6498L14.139 147.62H20.1178L22.2034 159.682H22.551L24.9146 147.62H30.0939L32.4576 159.682H32.8052L34.8908 147.62H40.8695ZM50.1632 160.968C52.1329 160.968 54.1837 160.667 56.3157 160.064L57.0804 164.34C54.7862 165.104 52.2603 165.487 49.5027 165.487C46.4438 165.487 44.2424 164.78 42.8983 163.366C41.5543 161.93 40.8822 159.577 40.8822 156.31C40.8822 153.066 41.5659 150.725 42.9331 149.288C44.3235 147.852 46.5597 147.133 49.6418 147.133C51.7042 147.133 53.2916 147.307 54.4039 147.655C55.5394 148.002 56.3389 148.582 56.8023 149.393C57.289 150.204 57.5323 151.362 57.5323 152.869C57.5323 154.352 57.231 155.499 56.6285 156.31C56.026 157.121 55.0064 157.7 53.5696 158.048C52.1329 158.396 50.0936 158.569 47.4519 158.569V160.759C48.1007 160.898 49.0045 160.968 50.1632 160.968ZM49.9546 151.652C49.0045 151.652 48.3441 151.756 47.9733 151.965C47.6257 152.174 47.4519 152.567 47.4519 153.147V155.371H49.5027C50.4528 155.371 51.1017 155.267 51.4493 155.059C51.8201 154.827 52.0054 154.41 52.0054 153.807V151.652H49.9546Z" fill="white"/>
<path fill-rule="evenodd" clip-rule="evenodd" d="M116.939 185.067C118.948 185.388 121.057 185.626 123.268 185.769C125.427 185.908 127.511 185.989 129.523 186.015C129.604 186.822 129.644 187.669 129.644 188.558V226.055H123.55L120.244 220.89C115.355 225.091 109.261 227.191 101.961 227.191C96.1763 227.191 92.01 225.951 89.4621 223.472C86.9141 220.993 85.6401 216.93 85.6401 211.283C85.6401 206.463 86.3632 202.916 87.8093 200.644C89.3243 198.371 92.0789 196.822 96.073 195.996C100.136 195.1 106.437 194.653 114.976 194.653H116.939V185.067ZM108.168 182.982C101.958 180.979 96.9669 178.143 92.9857 175.081C91.1415 175.484 89.4504 175.947 87.9126 176.473L89.5654 185.563C95.832 183.841 101.858 182.98 107.642 182.98C107.819 182.98 107.994 182.981 108.168 182.982ZM142.743 185.324V244.028L155.448 242.789V225.332C158.409 226.847 162.886 227.604 168.877 227.604C173.973 227.604 177.898 226.812 180.653 225.228C183.407 223.576 185.37 220.821 186.54 216.965C187.711 213.039 188.296 207.461 188.296 200.231C188.296 193.069 187.711 187.594 186.54 183.807C185.439 179.95 183.51 177.23 180.756 175.646C178.846 174.548 176.356 173.83 173.287 173.494C165.791 179.042 156.25 183.631 142.743 185.324ZM75.4888 216.758C76.8661 217.034 78.4844 217.24 80.3437 217.378L79.6207 225.951C76.5218 226.778 73.9049 227.191 71.7701 227.191C68.7401 227.191 66.4676 226.502 64.9526 225.125C63.5064 223.748 62.7834 221.579 62.7834 218.617V158.912L75.4888 157.363V216.758ZM36.4275 227.191C31.2626 227.191 27.2685 226.399 24.4451 224.815C21.6216 223.162 19.6246 220.442 18.4539 216.655C17.2832 212.798 16.6978 207.324 16.6978 200.231C16.6978 193.138 17.2832 187.663 18.4539 183.807C19.6246 179.95 21.6216 177.23 24.4451 175.646C27.2685 174.062 31.2626 173.27 36.4275 173.27C39.2509 173.27 42.2465 173.477 45.4142 173.89C48.6509 174.234 51.3021 174.682 53.3681 175.233L52.0252 184.53C47.4802 183.497 43.004 182.98 38.5967 182.98C35.4289 182.98 33.2253 183.634 31.9857 184.943C30.7462 186.182 30.1264 188.352 30.1264 191.451V216.448C32.2612 217.137 35.3601 217.481 39.423 217.481C41.6267 217.481 43.7615 217.309 45.8274 216.965C47.9622 216.552 50.4413 215.863 53.2648 214.899L54.5043 223.989C49.4084 226.124 43.3827 227.191 36.4275 227.191ZM115.183 216.758C114.081 217.516 111.981 217.894 108.882 217.894H97.2093V207.875C97.2093 205.671 97.7602 204.19 98.862 203.433C100.033 202.607 102.202 202.193 105.37 202.193H116.939V212.316C116.939 214.451 116.354 215.932 115.183 216.758ZM174.868 183.29H159.993C158.272 183.29 157.067 183.462 156.378 183.807C155.758 184.151 155.448 184.736 155.448 185.563V217.481H170.22C172.01 217.481 173.215 217.309 173.835 216.965C174.524 216.62 174.868 215.932 174.868 214.899V183.29ZM237.073 175.646C234.318 174.062 230.358 173.27 225.193 173.27C220.58 173.27 216.895 173.684 214.141 174.51C211.455 175.336 209.32 176.817 207.736 178.952L205.051 174.407H199.059V244.028L211.765 242.789V225.332C214.726 226.847 219.202 227.604 225.193 227.604C230.289 227.604 234.215 226.812 236.969 225.228C239.724 223.576 241.686 220.821 242.857 216.965C244.028 213.039 244.613 207.461 244.613 200.231C244.613 193.069 244.028 187.594 242.857 183.807C241.755 179.95 239.827 177.23 237.073 175.646ZM216.31 183.29H231.185V214.899C231.185 215.932 230.84 216.62 230.152 216.965C229.532 217.309 228.327 217.481 226.536 217.481H211.765V185.563C211.765 184.736 212.075 184.151 212.695 183.807C213.383 183.462 214.588 183.29 216.31 183.29Z" fill="white"/>
</svg>
