<svg width="29" height="24" viewBox="0 0 29 24" fill="none" xmlns="http://www.w3.org/2000/svg">
<path d="M28.5178 0.732539C27.3021 1.6014 25.9562 2.26594 24.5317 2.70056C23.7672 1.80982 22.7511 1.17849 21.6209 0.891944C20.4907 0.605403 19.3009 0.67748 18.2125 1.09843C17.124 1.51938 16.1894 2.26888 15.5351 3.24558C14.8807 4.22228 14.5382 5.37905 14.5538 6.55943V7.84572C12.3229 7.90433 10.1123 7.40299 8.11897 6.38635C6.1256 5.36971 4.4113 3.86933 3.12875 2.01883C3.12875 2.01883 -1.94906 13.5954 9.47601 18.7406C6.86161 20.5388 3.74717 21.4404 0.589844 21.3132C12.0149 27.7446 25.9789 21.3132 25.9789 6.52084C25.9777 6.16255 25.9437 5.80514 25.8773 5.45322C27.1729 4.15856 28.0872 2.52397 28.5178 0.732539Z" fill="rgba(255,255,255,.85)"/>
</svg>
