<svg width="129" height="135" viewBox="0 0 129 135" fill="none" xmlns="http://www.w3.org/2000/svg">
<path fill-rule="evenodd" clip-rule="evenodd" d="M27.2319 107.248L28.2677 108.623C34.7142 119.864 47.4636 127.401 61.8434 127.401C74.8375 127.401 86.273 121.143 93.1135 111.639L93.8395 110.63L100.515 112.699L99.1667 114.627C90.9247 126.407 77.1336 134.28 61.8434 134.28C44.9663 134.28 29.9384 125.403 22.272 112.036L21.2363 110.66L27.2319 107.248Z" fill="#FC5130"/>
<path fill-rule="evenodd" clip-rule="evenodd" d="M7.04164 61.902C14.5169 56.6805 24.8259 58.4843 30.0675 65.9309L38.1902 77.4708C35.9166 81.0296 32.8924 80.3222 30.7516 78.8843L24.4137 69.8802C21.3616 65.5441 15.3588 64.4938 11.006 67.5342C6.65332 70.5747 5.59896 76.5546 8.65108 80.8907L27.6678 107.907C27.7512 108.034 27.8362 108.159 27.9229 108.281C30.6588 112.129 30.9192 113.137 31.4664 113.952C32.0907 114.883 33.0884 115.563 38.5615 119.924C32.6484 120.7 26.515 118.251 22.8539 113.05L2.99729 84.8399C-2.24431 77.3933 -0.433593 67.1236 7.04164 61.902Z" fill="#FC5130"/>
<path fill-rule="evenodd" clip-rule="evenodd" d="M64.2855 33.774C67.8371 29.0668 74.5467 28.119 79.272 31.657C81.5219 33.3416 82.9161 35.7391 83.3763 38.2972L84.2803 37.1211C87.8647 32.4579 94.552 31.5436 99.2649 35.0724C103.408 38.1744 104.661 43.6862 102.535 48.1799C105.211 47.8335 108.019 48.4878 110.345 50.23C115.071 53.768 116.022 60.452 112.471 65.1592L111.024 67.0766C113.578 66.8092 116.238 67.464 118.46 69.1274C123.117 72.6142 124.055 79.2015 120.555 83.8405L99.5565 111.672C98.1922 113.48 96.3761 114.778 94.3695 115.509L94.9026 114.128L95.6814 110.804C96.0869 110.449 96.4613 110.049 96.7965 109.605L117.795 81.774C120.149 78.6535 119.518 74.2224 116.386 71.877C113.177 69.4739 108.607 70.1999 106.307 73.4779L103.999 76.7675C103.453 77.546 102.377 77.7359 101.595 77.1918C100.814 76.6478 100.623 75.5757 101.169 74.7971L102.942 72.2701C102.998 72.0634 103.093 71.8637 103.23 71.6822L109.711 63.0927C112.117 59.904 111.472 55.376 108.271 52.9793C105.07 50.5827 100.525 51.2247 98.1189 54.4135L93.9108 59.9908C93.338 60.7501 92.2558 60.9031 91.4936 60.3324C90.7315 59.7618 90.578 58.6836 91.1509 57.9245L95.359 52.347C95.692 51.9057 96.0527 51.4974 96.437 51.1228L96.3338 51.0455L98.6382 47.9912C101.057 44.7849 100.409 40.2318 97.1906 37.8219C93.9922 35.4271 89.4541 36.0476 87.0216 39.2121L81.8418 45.951C81.7023 46.1663 81.5542 46.3781 81.3972 46.5862L77.5116 51.7361C76.9388 52.4953 75.8566 52.6483 75.0944 52.0777C74.3323 51.507 74.1789 50.4288 74.7517 49.6697L78.1149 45.2121L78.081 45.1862L79.0063 43.9826C80.9646 40.8399 80.2227 36.6713 77.1976 34.4063C73.9966 32.0097 69.4514 32.6517 67.0455 35.8405L35.4409 77.729C34.1909 77.6962 32.9453 77.3403 31.8665 76.7421L64.2855 33.774Z" fill="#FC5130"/>
<path d="M79.272 31.657L80.335 30.2373L80.335 30.2373L79.272 31.657ZM64.2855 33.774L62.8698 32.7058L62.8698 32.7058L64.2855 33.774ZM83.3763 38.2972L81.6307 38.6111C81.755 39.3019 82.2749 39.8545 82.9569 40.0204C83.6389 40.1864 84.3546 39.9345 84.7824 39.3781L83.3763 38.2972ZM84.2803 37.1211L85.6864 38.202L85.6865 38.2019L84.2803 37.1211ZM99.2649 35.0724L98.202 36.4921L98.202 36.4921L99.2649 35.0724ZM102.535 48.1799L100.932 47.4217C100.655 48.0079 100.72 48.6988 101.101 49.2232C101.483 49.7477 102.12 50.0221 102.763 49.9388L102.535 48.1799ZM110.345 50.23L109.282 51.6497L110.345 50.23ZM112.471 65.1592L111.055 64.091L111.055 64.091L112.471 65.1592ZM111.024 67.0766L109.608 66.0084C109.183 66.5721 109.133 67.3344 109.48 67.9491C109.827 68.5639 110.506 68.914 111.209 68.8405L111.024 67.0766ZM118.46 69.1274L119.523 67.7077L119.523 67.7077L118.46 69.1274ZM120.555 83.8405L119.139 82.7723V82.7723L120.555 83.8405ZM99.5565 111.672L100.972 112.74H100.972L99.5565 111.672ZM94.3695 115.509L92.715 114.871C92.4644 115.52 92.6164 116.255 93.1036 116.752C93.5908 117.248 94.3233 117.414 94.9769 117.176L94.3695 115.509ZM94.9026 114.128L96.5572 114.767C96.5866 114.691 96.6108 114.613 96.6295 114.533L94.9026 114.128ZM95.6814 110.804L94.5147 109.468C94.2351 109.712 94.0392 110.038 93.9546 110.399L95.6814 110.804ZM96.7965 109.605L98.2123 110.673L98.2123 110.673L96.7965 109.605ZM117.795 81.774L116.379 80.7058L116.379 80.7058L117.795 81.774ZM116.386 71.877L115.323 73.2966L115.323 73.2967L116.386 71.877ZM106.307 73.4779L104.855 72.4593L104.855 72.4593L106.307 73.4779ZM103.999 76.7675L105.451 77.7862L105.451 77.7861L103.999 76.7675ZM101.595 77.1918L102.609 75.7363L102.608 75.7361L101.595 77.1918ZM101.169 74.7971L99.7173 73.7784L99.7172 73.7785L101.169 74.7971ZM102.942 72.2701L104.394 73.2888C104.513 73.1193 104.601 72.9303 104.655 72.7303L102.942 72.2701ZM103.23 71.6822L101.814 70.614L101.814 70.6142L103.23 71.6822ZM109.711 63.0927L108.295 62.0245L108.295 62.0245L109.711 63.0927ZM108.271 52.9793L107.208 54.399L107.208 54.399L108.271 52.9793ZM98.1189 54.4135L99.5347 55.4817L99.5347 55.4817L98.1189 54.4135ZM93.9108 59.9908L92.495 58.9226L92.495 58.9226L93.9108 59.9908ZM91.4936 60.3324L90.4306 61.7521L91.4936 60.3324ZM91.1509 57.9245L92.5666 58.9928L92.5666 58.9927L91.1509 57.9245ZM95.359 52.347L93.9432 51.2788L93.9432 51.2788L95.359 52.347ZM96.437 51.1228L97.6751 52.3926C98.0462 52.0308 98.2405 51.5247 98.2068 51.0075C98.1731 50.4903 97.9149 50.0137 97.5 49.703L96.437 51.1228ZM96.3338 51.0455L94.918 49.9773C94.634 50.3537 94.5116 50.8277 94.5778 51.2945C94.644 51.7614 94.8934 52.1826 95.2708 52.4652L96.3338 51.0455ZM98.6382 47.9912L97.2224 46.923L97.2224 46.923L98.6382 47.9912ZM97.1906 37.8219L96.1275 39.2416L96.1276 39.2416L97.1906 37.8219ZM87.0216 39.2121L85.6155 38.1312L85.6154 38.1313L87.0216 39.2121ZM81.8418 45.951L80.4356 44.8702C80.4065 44.908 80.379 44.947 80.3531 44.987L81.8418 45.951ZM81.3972 46.5862L82.813 47.6544L82.8131 47.6542L81.3972 46.5862ZM77.5116 51.7361L76.0959 50.6679L76.0959 50.6679L77.5116 51.7361ZM75.0944 52.0777L74.0314 53.4973L74.0315 53.4974L75.0944 52.0777ZM74.7517 49.6697L76.1674 50.738L76.1675 50.7379L74.7517 49.6697ZM78.1149 45.2121L79.5307 46.2803C80.118 45.5018 79.9666 44.3951 79.1917 43.8029L78.1149 45.2121ZM78.081 45.1862L76.6749 44.1053C76.3877 44.479 76.261 44.9515 76.3228 45.4187C76.3846 45.8859 76.6297 46.3093 77.0042 46.5954L78.081 45.1862ZM79.0063 43.9826L80.4124 45.0635C80.4477 45.0175 80.4808 44.9698 80.5115 44.9206L79.0063 43.9826ZM77.1976 34.4063L78.2606 32.9866L78.2606 32.9866L77.1976 34.4063ZM67.0455 35.8405L68.4613 36.9087L68.4613 36.9087L67.0455 35.8405ZM35.4409 77.729L35.3944 79.502C35.967 79.517 36.5117 79.2545 36.8567 78.7972L35.4409 77.729ZM31.8665 76.7421L30.4507 75.6739C30.1413 76.0839 30.0249 76.6078 30.1315 77.1103C30.2381 77.6127 30.5573 78.0442 31.0064 78.2932L31.8665 76.7421ZM80.335 30.2373C74.8291 26.1148 67.0108 27.2173 62.8698 32.7058L65.7013 34.8422C68.6634 30.9163 74.2644 30.1232 78.2091 33.0767L80.335 30.2373ZM85.1218 37.9832C84.5852 34.9998 82.9571 32.2006 80.335 30.2373L78.209 33.0767C80.0866 34.4826 81.2471 36.4784 81.6307 38.6111L85.1218 37.9832ZM82.8742 36.0402L81.9701 37.2163L84.7824 39.3781L85.6864 38.202L82.8742 36.0402ZM100.328 33.6527C94.8392 29.5431 87.0512 30.606 82.8742 36.0402L85.6865 38.2019C88.6782 34.3097 94.2647 33.5441 98.202 36.4921L100.328 33.6527ZM104.139 48.9382C106.618 43.6958 105.158 37.2688 100.328 33.6527L98.202 36.4921C101.658 39.08 102.703 43.6766 100.932 47.4217L104.139 48.9382ZM111.408 48.8103C108.697 46.7798 105.422 46.0178 102.308 46.4211L102.763 49.9388C105 49.6492 107.341 50.1957 109.282 51.6497L111.408 48.8103ZM113.886 66.2274C118.031 60.7348 116.918 52.9358 111.408 48.8103L109.282 51.6497C113.223 54.6002 114.014 60.1692 111.055 64.091L113.886 66.2274ZM112.44 68.1447L113.886 66.2274L111.055 64.091L109.608 66.0084L112.44 68.1447ZM119.523 67.7077C116.929 65.7654 113.819 65.0007 110.839 65.3126L111.209 68.8405C113.337 68.6177 115.548 69.1626 117.397 70.5472L119.523 67.7077ZM121.97 84.9087C126.063 79.4843 124.965 71.782 119.523 67.7077L117.397 70.5471C121.269 73.4464 122.046 78.9187 119.139 82.7723L121.97 84.9087ZM100.972 112.74L121.97 84.9087L119.139 82.7723L98.1407 110.603L100.972 112.74ZM94.9769 117.176C97.2952 116.331 99.3956 114.829 100.972 112.74L98.1407 110.603C96.9887 112.13 95.457 113.225 93.7621 113.843L94.9769 117.176ZM96.024 116.148L96.5572 114.767L93.2481 113.49L92.715 114.871L96.024 116.148ZM96.6295 114.533L97.4082 111.208L93.9546 110.399L93.1758 113.724L96.6295 114.533ZM95.3807 108.537C95.1197 108.883 94.829 109.193 94.5147 109.468L96.8481 112.139C97.3449 111.706 97.8029 111.216 98.2123 110.673L95.3807 108.537ZM116.379 80.7058L95.3807 108.537L98.2123 110.673L119.211 82.8422L116.379 80.7058ZM115.323 73.2967C117.671 75.0546 118.141 78.3707 116.379 80.7058L119.21 82.8422C122.158 78.9363 121.366 73.3902 117.449 70.4573L115.323 73.2967ZM107.759 74.4966C109.483 72.0396 112.913 71.4923 115.323 73.2966L117.449 70.4573C113.44 67.4555 107.731 68.3602 104.855 72.4593L107.759 74.4966ZM105.451 77.7861L107.759 74.4965L104.855 72.4593L102.547 75.7489L105.451 77.7861ZM100.582 78.6472C102.163 79.7484 104.342 79.3663 105.451 77.7862L102.547 75.7489C102.55 75.7454 102.555 75.7396 102.563 75.735C102.569 75.7311 102.574 75.7296 102.577 75.729C102.58 75.7285 102.585 75.7282 102.592 75.7296C102.6 75.7312 102.606 75.7345 102.609 75.7363L100.582 78.6472ZM99.7172 73.7785C98.6059 75.3627 98.9961 77.5435 100.582 78.6474L102.608 75.7361C102.631 75.7521 102.64 75.7887 102.621 75.8157L99.7172 73.7785ZM101.49 71.2514L99.7173 73.7784L102.621 75.8158L104.394 73.2888L101.49 71.2514ZM101.814 70.6142C101.538 70.9801 101.343 71.3867 101.229 71.8099L104.655 72.7303C104.654 72.7347 104.652 72.7389 104.65 72.7428C104.648 72.7467 104.647 72.7492 104.646 72.7501L101.814 70.6142ZM108.295 62.0245L101.814 70.614L104.646 72.7503L111.126 64.1609L108.295 62.0245ZM107.208 54.399C109.624 56.2082 110.108 59.6212 108.295 62.0245L111.126 64.1609C114.125 60.1868 113.32 54.5438 109.334 51.5596L107.208 54.399ZM99.5347 55.4817C101.351 53.0742 104.788 52.5868 107.208 54.399L109.334 51.5596C105.352 48.5785 99.6985 49.3752 96.7031 53.3454L99.5347 55.4817ZM95.3266 61.059L99.5347 55.4817L96.7031 53.3453L92.495 58.9226L95.3266 61.059ZM90.4306 61.7521C91.9736 62.9074 94.1644 62.5994 95.3266 61.059L92.495 58.9226C92.4975 58.9194 92.5031 58.9139 92.5105 58.9096C92.5167 58.906 92.5217 58.9047 92.525 58.9042C92.5283 58.9038 92.5332 58.9037 92.5398 58.9053C92.5476 58.9073 92.554 58.9107 92.5566 58.9127L90.4306 61.7521ZM89.7351 56.8562C88.5696 58.4008 88.8839 60.594 90.4306 61.7521L92.5566 58.9127C92.5791 58.9296 92.5865 58.9664 92.5666 58.9928L89.7351 56.8562ZM93.9432 51.2788L89.7351 56.8563L92.5666 58.9927L96.7748 53.4152L93.9432 51.2788ZM95.1989 49.8529C94.7506 50.2899 94.3304 50.7656 93.9432 51.2788L96.7747 53.4152C97.0535 53.0458 97.3548 52.7049 97.6751 52.3926L95.1989 49.8529ZM95.2708 52.4652L95.374 52.5425L97.5 49.703L97.3968 49.6258L95.2708 52.4652ZM97.2224 46.923L94.918 49.9773L97.7496 52.1137L100.054 49.0593L97.2224 46.923ZM96.1276 39.2416C98.5616 41.064 99.049 44.502 97.2224 46.923L100.054 49.0594C103.066 45.0677 102.257 39.3996 98.2535 36.4022L96.1276 39.2416ZM88.4277 40.293C90.2676 37.8994 93.7049 37.4276 96.1275 39.2416L98.2536 36.4022C94.2794 33.4265 88.6405 34.1958 85.6155 38.1312L88.4277 40.293ZM83.2479 47.0319L88.4278 40.2929L85.6154 38.1313L80.4356 44.8702L83.2479 47.0319ZM82.8131 47.6542C82.9953 47.4127 83.1678 47.1662 83.3304 46.915L80.3531 44.987C80.2369 45.1664 80.113 45.3435 79.9813 45.5182L82.8131 47.6542ZM78.9274 52.8043L82.813 47.6544L79.9814 45.518L76.0959 50.6679L78.9274 52.8043ZM74.0315 53.4974C75.5744 54.6526 77.7652 54.3446 78.9274 52.8043L76.0959 50.6679C76.0983 50.6647 76.1039 50.6591 76.1113 50.6549C76.1175 50.6512 76.1225 50.65 76.1258 50.6495C76.1292 50.649 76.134 50.6489 76.1406 50.6505C76.1484 50.6525 76.1548 50.656 76.1574 50.658L74.0315 53.4974ZM73.336 48.6014C72.1704 50.146 72.4847 52.3392 74.0314 53.4973L76.1575 50.658C76.1799 50.6748 76.1873 50.7117 76.1674 50.738L73.336 48.6014ZM76.6991 44.1439L73.3359 48.6015L76.1675 50.7379L79.5307 46.2803L76.6991 44.1439ZM77.0042 46.5954L77.038 46.6213L79.1917 43.8029L79.1579 43.777L77.0042 46.5954ZM77.6001 42.9017L76.6749 44.1053L79.4872 46.2671L80.4124 45.0635L77.6001 42.9017ZM76.1346 35.826C78.4176 37.5354 78.9757 40.6782 77.501 43.0446L80.5115 44.9206C82.9536 41.0017 82.0278 35.8073 78.2606 32.9866L76.1346 35.826ZM68.4613 36.9087C70.2777 34.5012 73.7143 34.0138 76.1346 35.826L78.2606 32.9866C74.279 30.0055 68.6251 30.8022 65.6297 34.7724L68.4613 36.9087ZM36.8567 78.7972L68.4613 36.9087L65.6297 34.7723L34.0251 76.6609L36.8567 78.7972ZM35.4875 75.9561C34.5356 75.9311 33.5677 75.6574 32.7265 75.191L31.0064 78.2932C32.3229 79.0231 33.8462 79.4613 35.3944 79.502L35.4875 75.9561ZM62.8698 32.7058L30.4507 75.6739L33.2822 77.8103L65.7013 34.8422L62.8698 32.7058Z" fill="#FC5130"/>
<ellipse cx="50.4494" cy="108.966" rx="3.10734" ry="3.09547" fill="#FC5130"/>
<path fill-rule="evenodd" clip-rule="evenodd" d="M98.4545 83.182C99.9741 84.3296 100.272 86.487 99.1202 88.0007L82.9752 109.217C75.9382 120.092 64.6267 118.927 59.8377 116.963C58.0745 116.239 57.2337 114.229 57.9597 112.473C58.6857 110.716 60.7036 109.879 62.4668 110.602C65.4857 111.84 72.6591 112.554 77.2287 105.401L77.3047 105.282L93.6174 83.8452C94.7693 82.3314 96.935 82.0345 98.4545 83.182Z" fill="#FC5130"/>
<path fill-rule="evenodd" clip-rule="evenodd" d="M34.5137 38.4149C29.2721 30.9683 18.9631 29.1645 11.4878 34.386C4.0126 39.6076 2.20189 49.8773 7.44349 57.3239L12.9539 65.1525L18.1139 60.5018L13.0973 53.3747C10.0452 49.0386 11.0995 43.0587 15.4522 40.0182C19.805 36.9778 25.8078 38.0281 28.8599 42.3642L35.1963 51.3662C37.3371 52.8047 40.3619 53.5132 42.636 49.9543L34.5137 38.4149Z" fill="#FC5130"/>
<path fill-rule="evenodd" clip-rule="evenodd" d="M83.718 4.13965C78.9927 0.601657 72.2831 1.54951 68.7315 6.25671L36.3134 49.2235C37.3922 49.8217 38.6377 50.1777 39.8878 50.2105L71.4914 8.32321C73.8973 5.13436 78.4426 4.49233 81.6436 6.889C84.6687 9.15401 85.4106 13.3226 83.4522 16.4653L82.527 17.6689L82.5608 17.6948L79.1976 22.1524C78.6248 22.9115 78.7783 23.9897 79.5404 24.5603C80.3026 25.131 81.3847 24.978 81.9576 24.2187L85.8432 19.0689C86.0001 18.8608 86.1483 18.649 86.2877 18.4337L91.4675 11.6948C93.9 8.53028 98.4381 7.90974 101.636 10.3046C104.855 12.7145 105.503 17.2675 103.084 20.4738L100.78 23.5282L100.883 23.6054C100.499 23.9801 100.138 24.3884 99.8049 24.8297L95.5968 30.4072C95.024 31.1663 95.1774 32.2444 95.9396 32.8151C96.7017 33.3858 97.7839 33.2328 98.3568 32.4735L102.565 26.8962C104.971 23.7074 109.516 23.0653 112.717 25.462C115.918 27.8587 116.563 32.3867 114.157 35.5754L107.676 44.1648C107.539 44.3464 107.444 44.5461 107.388 44.7528L105.615 47.2798C105.069 48.0583 105.26 49.1305 106.041 49.6744C106.823 50.2186 107.899 50.0286 108.445 49.2502L110.753 45.9606C113.053 42.6826 117.623 41.9566 120.832 44.3596C123.964 46.7051 124.595 51.1362 122.241 54.2567L112.736 66.8536L115.098 69.4478L125.001 56.3232C128.501 51.6842 127.563 45.0969 122.906 41.6101C120.684 39.9467 118.024 39.2919 115.47 39.5592L116.917 37.6419C120.468 32.9347 119.517 26.2507 114.791 22.7127C112.465 20.9704 109.657 20.3162 106.981 20.6626C109.107 16.1689 107.854 10.6571 103.711 7.55505C98.9979 4.02629 92.3107 4.94056 88.7263 9.60375L87.8222 10.7798C87.3621 8.22177 85.9678 5.82426 83.718 4.13965Z" fill="#FC5130"/>
<path d="M68.7315 6.25671L67.3157 5.1885L67.3157 5.18851L68.7315 6.25671ZM83.718 4.13965L84.781 2.71997L84.781 2.71995L83.718 4.13965ZM36.3134 49.2235L34.8976 48.1553C34.5882 48.5653 34.4718 49.0893 34.5784 49.5916C34.685 50.094 35.0042 50.5256 35.4533 50.7746L36.3134 49.2235ZM39.8878 50.2105L39.8412 51.9835C40.4138 51.9985 40.9585 51.736 41.3036 51.2787L39.8878 50.2105ZM71.4914 8.32321L72.9072 9.39141L72.9072 9.39139L71.4914 8.32321ZM81.6436 6.889L82.7065 5.4693L82.7065 5.46929L81.6436 6.889ZM83.4522 16.4653L84.8583 17.5462C84.8937 17.5002 84.9268 17.4525 84.9574 17.4033L83.4522 16.4653ZM82.527 17.6689L81.1209 16.588C80.8337 16.9616 80.707 17.4342 80.7687 17.9013C80.8305 18.3685 81.0756 18.7919 81.45 19.078L82.527 17.6689ZM82.5608 17.6948L83.9766 18.763C84.564 17.9845 84.4126 16.8778 83.6378 16.2856L82.5608 17.6948ZM79.1976 22.1524L80.6133 23.2207L80.6134 23.2206L79.1976 22.1524ZM79.5404 24.5603L78.4774 25.98L78.4774 25.98L79.5404 24.5603ZM81.9576 24.2187L80.5418 23.1505L80.5418 23.1506L81.9576 24.2187ZM85.8432 19.0689L87.2589 20.1371L87.2591 20.1369L85.8432 19.0689ZM86.2877 18.4337L84.8815 17.3529C84.8525 17.3907 84.825 17.4297 84.799 17.4697L86.2877 18.4337ZM91.4675 11.6948L90.0614 10.6139L90.0614 10.6139L91.4675 11.6948ZM101.636 10.3046L100.573 11.7243L100.574 11.7243L101.636 10.3046ZM103.084 20.4738L101.668 19.4056L101.668 19.4057L103.084 20.4738ZM100.78 23.5282L99.3639 22.46C99.08 22.8364 98.9576 23.3104 99.0238 23.7772C99.09 24.244 99.3393 24.6652 99.7167 24.9478L100.78 23.5282ZM100.883 23.6054L102.121 24.8753C102.492 24.5135 102.686 24.0074 102.653 23.4902C102.619 22.973 102.361 22.4964 101.946 22.1858L100.883 23.6054ZM99.8049 24.8297L98.3891 23.7615L98.3891 23.7615L99.8049 24.8297ZM95.5968 30.4072L97.0125 31.4755L97.0126 31.4754L95.5968 30.4072ZM95.9396 32.8151L97.0026 31.3954L97.0026 31.3954L95.9396 32.8151ZM98.3568 32.4735L96.941 31.4053L96.941 31.4053L98.3568 32.4735ZM102.565 26.8962L103.981 27.9644L103.981 27.9644L102.565 26.8962ZM112.717 25.462L113.78 24.0423L113.78 24.0423L112.717 25.462ZM114.157 35.5754L112.741 34.5072L112.741 34.5072L114.157 35.5754ZM107.676 44.1648L106.26 43.0966L106.26 43.0968L107.676 44.1648ZM107.388 44.7528L108.84 45.7714C108.959 45.602 109.047 45.413 109.101 45.213L107.388 44.7528ZM105.615 47.2798L104.163 46.2611L104.163 46.2612L105.615 47.2798ZM106.041 49.6744L107.055 48.219L107.054 48.2188L106.041 49.6744ZM108.445 49.2502L109.897 50.2689L109.897 50.2688L108.445 49.2502ZM110.753 45.9606L109.301 44.942L109.301 44.942L110.753 45.9606ZM120.832 44.3596L119.769 45.7793L119.769 45.7793L120.832 44.3596ZM122.241 54.2567L120.825 53.1885L120.825 53.1885L122.241 54.2567ZM112.736 66.8536L111.321 65.7854C110.807 66.4665 110.851 67.4168 111.425 68.0476L112.736 66.8536ZM115.098 69.4478L113.787 70.6418C114.142 71.032 114.653 71.2438 115.18 71.2194C115.707 71.1951 116.196 70.9373 116.514 70.516L115.098 69.4478ZM125.001 56.3232L123.585 55.255L123.585 55.255L125.001 56.3232ZM122.906 41.6101L123.969 40.1904L123.969 40.1904L122.906 41.6101ZM115.47 39.5592L114.054 38.4911C113.629 39.0548 113.579 39.817 113.926 40.4318C114.273 41.0466 114.952 41.3967 115.655 41.3232L115.47 39.5592ZM116.917 37.6419L115.501 36.5737L115.501 36.5737L116.917 37.6419ZM114.791 22.7127L113.728 24.1324L113.728 24.1324L114.791 22.7127ZM106.981 20.6626L105.378 19.9043C105.101 20.4906 105.166 21.1815 105.547 21.7059C105.929 22.2304 106.566 22.5048 107.209 22.4215L106.981 20.6626ZM103.711 7.55505L102.648 8.97476L102.648 8.97476L103.711 7.55505ZM88.7263 9.60375L90.1324 10.6847L90.1324 10.6846L88.7263 9.60375ZM87.8222 10.7798L86.0767 11.0938C86.2009 11.7846 86.7209 12.3371 87.4029 12.5031C88.0849 12.6691 88.8005 12.4172 89.2283 11.8607L87.8222 10.7798ZM70.1473 7.32491C73.1094 3.399 78.7103 2.60584 82.655 5.55935L84.781 2.71995C79.2751 -1.40253 71.4567 -0.299981 67.3157 5.1885L70.1473 7.32491ZM37.7291 50.2917L70.1473 7.3249L67.3157 5.18851L34.8976 48.1553L37.7291 50.2917ZM39.9344 48.4376C38.9825 48.4126 38.0146 48.1389 37.1734 47.6725L35.4533 50.7746C36.7698 51.5046 38.293 51.9428 39.8412 51.9835L39.9344 48.4376ZM70.0756 7.25501L38.472 49.1423L41.3036 51.2787L72.9072 9.39141L70.0756 7.25501ZM82.7065 5.46929C78.7249 2.48815 73.071 3.28485 70.0756 7.25503L72.9072 9.39139C74.7236 6.98387 78.1602 6.4965 80.5806 8.30871L82.7065 5.46929ZM84.9574 17.4033C87.3995 13.4844 86.4738 8.28995 82.7065 5.4693L80.5806 8.3087C82.8636 10.0181 83.4216 13.1609 81.947 15.5273L84.9574 17.4033ZM83.9331 18.7498L84.8583 17.5462L82.0461 15.3844L81.1209 16.588L83.9331 18.7498ZM83.6378 16.2856L83.6039 16.2598L81.45 19.078L81.4839 19.1039L83.6378 16.2856ZM80.6134 23.2206L83.9766 18.763L81.145 16.6266L77.7818 21.0842L80.6134 23.2206ZM80.6034 23.1407C80.6259 23.1575 80.6332 23.1943 80.6133 23.2207L77.7819 21.0841C76.6164 22.6287 76.9306 24.8219 78.4774 25.98L80.6034 23.1407ZM80.5418 23.1506C80.5442 23.1473 80.5498 23.1418 80.5572 23.1375C80.5635 23.1339 80.5684 23.1326 80.5718 23.1322C80.5751 23.1317 80.58 23.1316 80.5866 23.1332C80.5944 23.1352 80.6007 23.1387 80.6034 23.1406L78.4774 25.98C80.0204 27.1353 82.2112 26.8273 83.3734 25.2869L80.5418 23.1506ZM84.4274 18.0007L80.5418 23.1505L83.3734 25.2869L87.2589 20.1371L84.4274 18.0007ZM84.799 17.4697C84.6829 17.6491 84.559 17.8262 84.4272 18.0008L87.2591 20.1369C87.4412 19.8954 87.6137 19.6489 87.7764 19.3977L84.799 17.4697ZM90.0614 10.6139L84.8815 17.3529L87.6939 19.5145L92.8737 12.7756L90.0614 10.6139ZM102.7 8.88488C98.7254 5.90919 93.0865 6.67846 90.0614 10.6139L92.8737 12.7756C94.7135 10.3821 98.1509 9.91029 100.573 11.7243L102.7 8.88488ZM104.5 21.5421C107.512 17.5504 106.703 11.8823 102.699 8.88485L100.574 11.7243C103.008 13.5467 103.495 16.9847 101.668 19.4056L104.5 21.5421ZM102.196 24.5963L104.5 21.542L101.668 19.4057L99.3639 22.46L102.196 24.5963ZM101.946 22.1858L101.843 22.1085L99.7167 24.9478L99.8199 25.0251L101.946 22.1858ZM101.221 25.8979C101.499 25.5285 101.801 25.1876 102.121 24.8753L99.6448 22.3356C99.1966 22.7726 98.7764 23.2482 98.3891 23.7615L101.221 25.8979ZM97.0126 31.4754L101.221 25.8979L98.3891 23.7615L94.181 29.339L97.0126 31.4754ZM97.0026 31.3954C97.0251 31.4122 97.0324 31.4491 97.0125 31.4755L94.1811 29.3389C93.0156 30.8834 93.3298 33.0766 94.8766 34.2348L97.0026 31.3954ZM96.941 31.4053C96.9434 31.4021 96.949 31.3966 96.9564 31.3923C96.9627 31.3887 96.9676 31.3874 96.971 31.3869C96.9743 31.3864 96.9792 31.3864 96.9857 31.388C96.9936 31.3899 96.9999 31.3934 97.0026 31.3954L94.8766 34.2348C96.4195 35.3901 98.6104 35.0821 99.7726 33.5417L96.941 31.4053ZM101.149 25.828L96.941 31.4053L99.7726 33.5417L103.981 27.9644L101.149 25.828ZM113.78 24.0423C109.798 21.0612 104.144 21.8579 101.149 25.828L103.981 27.9644C105.797 25.5569 109.234 25.0695 111.654 26.8817L113.78 24.0423ZM115.572 36.6436C118.571 32.6695 117.766 27.0265 113.78 24.0423L111.654 26.8817C114.07 28.6909 114.554 32.1039 112.741 34.5072L115.572 36.6436ZM109.092 45.233L115.572 36.6436L112.741 34.5072L106.26 43.0966L109.092 45.233ZM109.101 45.213C109.1 45.2173 109.098 45.2216 109.096 45.2255C109.094 45.2294 109.093 45.2319 109.092 45.2328L106.26 43.0968C105.984 43.4628 105.789 43.8694 105.675 44.2926L109.101 45.213ZM107.067 48.2984L108.84 45.7714L105.936 43.7341L104.163 46.2611L107.067 48.2984ZM107.054 48.2188C107.077 48.2348 107.086 48.2714 107.067 48.2984L104.163 46.2612C103.052 47.8453 103.442 50.0262 105.028 51.1301L107.054 48.2188ZM106.993 48.2316C106.996 48.2281 107.001 48.2223 107.008 48.2177C107.015 48.2138 107.02 48.2123 107.023 48.2117C107.026 48.2111 107.031 48.2109 107.038 48.2123C107.046 48.2139 107.052 48.2172 107.055 48.219L105.028 51.1299C106.609 52.231 108.788 51.8489 109.897 50.2689L106.993 48.2316ZM109.301 44.942L106.993 48.2316L109.897 50.2688L112.205 46.9792L109.301 44.942ZM121.895 42.94C117.886 39.9382 112.177 40.8429 109.301 44.942L112.205 46.9793C113.929 44.5223 117.359 43.975 119.769 45.7793L121.895 42.94ZM123.656 55.3249C126.604 51.419 125.812 45.8729 121.895 42.9399L119.769 45.7793C122.117 47.5373 122.587 50.8534 120.825 53.1885L123.656 55.3249ZM114.152 67.9218L123.656 55.3249L120.825 53.1885L111.321 65.7854L114.152 67.9218ZM116.41 68.2538L114.048 65.6596L111.425 68.0476L113.787 70.6418L116.41 68.2538ZM123.585 55.255L113.683 68.3796L116.514 70.516L126.416 57.3914L123.585 55.255ZM121.843 43.0298C125.715 45.9291 126.492 51.4014 123.585 55.255L126.416 57.3914C130.509 51.967 129.411 44.2647 123.969 40.1904L121.843 43.0298ZM115.655 41.3232C117.783 41.1003 119.994 41.6453 121.843 43.0299L123.969 40.1904C121.375 38.2481 118.265 37.4834 115.285 37.7953L115.655 41.3232ZM115.501 36.5737L114.054 38.4911L116.886 40.6274L118.332 38.71L115.501 36.5737ZM113.728 24.1324C117.669 27.0828 118.46 32.6519 115.501 36.5737L118.332 38.7101C122.476 33.2175 121.364 25.4185 115.854 21.293L113.728 24.1324ZM107.209 22.4215C109.446 22.1318 111.787 22.6784 113.728 24.1324L115.854 21.293C113.143 19.2625 109.867 18.5005 106.754 18.9037L107.209 22.4215ZM102.648 8.97476C106.104 11.5626 107.149 16.1593 105.378 19.9043L108.585 21.4209C111.064 16.1784 109.604 9.75151 104.774 6.13534L102.648 8.97476ZM90.1324 10.6846C93.1242 6.79241 98.7106 6.02681 102.648 8.97476L104.774 6.13534C99.2852 2.02578 91.4972 3.08871 87.3201 8.52291L90.1324 10.6846ZM89.2283 11.8607L90.1324 10.6847L87.3202 8.52285L86.4161 9.69894L89.2283 11.8607ZM82.655 5.55933C84.5326 6.96524 85.6931 8.96111 86.0767 11.0938L89.5677 10.4659C89.0311 7.48244 87.4031 4.68328 84.781 2.71997L82.655 5.55933Z" fill="#FC5130"/>
</svg>
