<svg width="31" height="31" viewBox="0 0 31 31" fill="none" xmlns="http://www.w3.org/2000/svg">
<path fill-rule="evenodd" clip-rule="evenodd" d="M4.25003 0H3.44444C2.53092 0 1.65481 0.362896 1.00885 1.00885C0.362896 1.65481 0 2.53092 0 3.44444V27.5556C0 28.4691 0.362896 29.3452 1.00885 29.9911C1.65481 30.6371 2.53092 31 3.44444 31H4.25003V17C4.25003 16.0335 5.03352 15.25 6 15.25H24C24.9665 15.25 25.75 16.0335 25.75 17V31H27.5556C28.4691 31 29.3452 30.6371 29.9911 29.9911C30.6371 29.3452 31 28.4691 31 27.5556V8.61111L22.3889 0H7.74997V6.25003H20C20.9665 6.25003 21.75 7.03352 21.75 8C21.75 8.96648 20.9665 9.74997 20 9.74997H6C5.03352 9.74997 4.25003 8.96648 4.25003 8V0ZM22.25 18.75V31H7.74997V18.75H22.25Z" fill="#ffffff"/>
</svg>
